<svg width="40" height="40" viewBox="0 0 40 40" fill="none" xmlns="http://www.w3.org/2000/svg">
<path d="M20.6856 15.9843C18.2146 12.2795 19.6971 1.65401 17.4738 1.01332C15.4976 0.419842 9.36906 4.47221 6.3553 9.85829C3.34048 15.2449 -0.364911 23.2975 7.14636 28.3886C11.2466 31.55 5.9611 33.0328 5.02117 30.5132C4.93365 35.6378 9.96764 35.7695 10.7039 32.1436C11.2161 29.6191 8.14786 24.3231 7.19602 21.7665C4.87272 15.5411 11.7414 7.18918 11.7414 7.18918C11.7414 7.18918 5.61411 17.2702 8.08448 22.1627C16.5351 34.6148 10.91 34.3181 8.72645 35.8019C16.979 36.1968 19.8157 28.9189 20.2901 27.9441C21.3759 25.0285 20.7091 19.84 18.0164 17.3708C17.3745 16.8021 16.7815 17.4938 14.5451 17.3708C12.3088 17.246 13.52 15.1469 13.52 15.1469C13.52 15.1469 12.7483 14.4918 12.7291 14.2081C12.7104 13.9249 13.4195 13.7139 13.4195 13.7139C13.4195 13.7139 12.7279 13.3426 12.6788 13.0223C12.6304 12.6988 13.4213 11.9333 13.4213 11.9333C13.4213 11.9333 12.3771 11.4515 12.3578 10.9696C12.3392 10.4879 13.4971 9.69315 14.606 7.38782C15.4455 5.64567 15.397 2.74314 16.7306 2.07512C17.5215 3.43488 14.2614 13.8113 19.5972 17.1224C20.585 17.6656 26.9103 22.6072 21.7212 28.9809C27.4543 24.9788 22.239 18.266 20.6856 15.9843Z" fill="white"/>
<path d="M24.8853 0.320423C27.3563 3.23731 24.8356 14.2564 30.6668 17.9121C38.5717 23.5458 33 31.1403 31.8527 33.1817C33.8295 27.4499 33.6817 24.4846 32.7417 22.1626C31.8017 19.8411 25.8736 13.6642 24.9349 10.5498C23.9962 7.43621 23.6994 -1.15971 19.1509 0.405494C23.3541 5.70831 20.8086 10.5703 26.5404 17.8624C32.2722 25.1539 31.11 35.4044 26.3194 37.7748C33.8045 27.8683 27.2084 20.1348 25.2812 17.0701C24.2617 15.4491 22.1199 14.1061 21.9211 10.3517C21.7236 6.59549 19.1135 0.0967913 18.0674 0.469404C20.785 5.85537 17.9681 13.4157 24.0458 20.6798C28.1955 25.2258 30.0259 35.1087 23.0101 39.9999C30.3723 39.7031 34.6215 31.848 36.3998 26.7569C38.7715 19.6907 32.0015 13.6144 30.7175 11.1428C29.4326 8.67038 28.7396 0.371253 24.8853 0.320423Z" fill="white"/>
<path d="M34.3722 8.30053C32.0004 4.52071 28.7112 2.30417 27.4818 1.37105C30.8518 7.18918 30.6284 9.78311 31.8515 11.5632C33.0746 13.3414 35.2241 13.7505 37.263 20.1095C37.3362 19.2054 36.744 12.0822 34.3722 8.30053ZM24.3477 4.52187C24.514 5.44639 25.3287 10.2282 25.9594 11.1186C25.5534 5.26327 26.1096 5.59601 25.6266 3.40935C25.1436 1.22196 24.2918 0.0367027 21.4756 0.00012207C24.2918 2.3718 24.1813 3.59747 24.3477 4.52187Z" fill="white"/>
</svg>
