<svg width="60" height="60" viewBox="0 0 60 60" fill="none" xmlns="http://www.w3.org/2000/svg">
<circle cx="30" cy="30" r="29.5" stroke="white"/>
<path d="M30.6856 25.9843C28.2146 22.2795 29.6971 11.654 27.4738 11.0133C25.4976 10.4198 19.3691 14.4722 16.3553 19.8583C13.3405 25.2449 9.63509 33.2975 17.1464 38.3886C21.2466 41.55 15.9611 43.0328 15.0212 40.5132C14.9337 45.6378 19.9676 45.7695 20.7039 42.1436C21.2161 39.6191 18.1479 34.3231 17.196 31.7665C14.8727 25.5411 21.7414 17.1892 21.7414 17.1892C21.7414 17.1892 15.6141 27.2702 18.0845 32.1627C26.5351 44.6148 20.91 44.3181 18.7264 45.8019C26.979 46.1968 29.8157 38.9189 30.2901 37.9441C31.3759 35.0285 30.7091 29.84 28.0164 27.3708C27.3745 26.8021 26.7815 27.4938 24.5451 27.3708C22.3088 27.246 23.52 25.1469 23.52 25.1469C23.52 25.1469 22.7483 24.4918 22.7291 24.2081C22.7104 23.9249 23.4195 23.7139 23.4195 23.7139C23.4195 23.7139 22.7279 23.3426 22.6788 23.0223C22.6304 22.6988 23.4213 21.9333 23.4213 21.9333C23.4213 21.9333 22.3771 21.4515 22.3578 20.9696C22.3392 20.4879 23.4971 19.6931 24.606 17.3878C25.4455 15.6457 25.397 12.7431 26.7306 12.0751C27.5215 13.4349 24.2614 23.8113 29.5972 27.1224C30.585 27.6656 36.9103 32.6072 31.7212 38.9809C37.4543 34.9788 32.239 28.266 30.6856 25.9843Z" fill="white"/>
<path d="M34.8853 10.3204C37.3563 13.2373 34.8356 24.2564 40.6668 27.9121C48.5717 33.5458 43 41.1403 41.8527 43.1817C43.8295 37.4499 43.6817 34.4846 42.7417 32.1626C41.8017 29.8411 35.8736 23.6642 34.9349 20.5498C33.9962 17.4362 33.6994 8.84029 29.1509 10.4055C33.3541 15.7083 30.8086 20.5703 36.5404 27.8624C42.2722 35.1539 41.11 45.4044 36.3194 47.7748C43.8045 37.8683 37.2084 30.1348 35.2812 27.0701C34.2617 25.4491 32.1199 24.1061 31.9211 20.3517C31.7236 16.5955 29.1135 10.0968 28.0674 10.4694C30.785 15.8554 27.9681 23.4157 34.0458 30.6798C38.1955 35.2258 40.0259 45.1087 33.0101 49.9999C40.3723 49.7031 44.6215 41.848 46.3998 36.7569C48.7715 29.6907 42.0015 23.6144 40.7175 21.1428C39.4326 18.6704 38.7396 10.3713 34.8853 10.3204Z" fill="white"/>
<path d="M44.3722 18.3005C42.0004 14.5207 38.7112 12.3042 37.4818 11.371C40.8518 17.1892 40.6284 19.7831 41.8515 21.5632C43.0746 23.3414 45.2241 23.7505 47.263 30.1095C47.3362 29.2054 46.744 22.0822 44.3722 18.3005ZM34.3477 14.5219C34.514 15.4464 35.3287 20.2282 35.9594 21.1186C35.5534 15.2633 36.1096 15.596 35.6266 13.4094C35.1436 11.222 34.2918 10.0367 31.4756 10.0001C34.2918 12.3718 34.1813 13.5975 34.3477 14.5219Z" fill="white"/>
</svg>
