<svg width="115" height="82" viewBox="0 0 115 82" fill="none" xmlns="http://www.w3.org/2000/svg">
<mask id="mask0_1443_248" style="mask-type:alpha" maskUnits="userSpaceOnUse" x="0" y="0" width="115" height="82">
<rect width="115" height="82" fill="#D9D9D9"/>
</mask>
<g mask="url(#mask0_1443_248)">
<path d="M115 26.0367C115 30.5539 114.562 35.3221 113.685 40.5294C112.809 45.6741 111.432 50.8187 109.554 55.8378C107.676 60.9197 105.171 65.6878 102.167 70.2678C99.0991 74.785 95.4056 78.7376 91.1486 82L74.6217 70.3305C77.5014 67.0681 79.5672 63.9311 80.9445 60.9824C82.3217 58.0337 83.4486 55.0849 84.1998 52.0735C81.1323 51.5715 78.3152 50.505 75.6233 48.9365C72.9314 47.368 70.7403 45.4231 68.7997 43.1018C66.9216 40.7804 65.4192 38.2081 64.2923 35.3221C63.1655 32.4361 62.6021 29.2992 62.6021 26.0367C62.6021 22.4606 63.2907 19.1354 64.6679 15.9985C66.0452 12.8615 67.9232 10.101 70.3021 7.7169C72.681 5.33282 75.4981 3.45065 78.6282 2.07039C81.8209 0.690125 85.0762 0 88.5819 0C92.2755 0 95.7186 0.690125 98.9113 2.07039C102.104 3.45065 104.921 5.33282 107.237 7.7169C109.616 10.101 111.432 12.8615 112.809 15.9985C114.311 19.1354 115 22.4606 115 26.0367ZM52.3353 26.0367C52.3353 30.5539 51.8971 35.3221 51.0207 40.5294C50.1443 45.7368 48.767 50.8187 46.8889 55.8378C45.0109 60.9197 42.5694 65.6878 39.5645 70.2678C36.5596 74.785 32.9287 78.7376 28.6091 82L11.957 70.3305C14.8367 67.0681 16.9652 63.9311 18.3424 60.9824C19.7822 58.0337 20.9091 55.0849 21.7229 52.0735C18.6554 51.5715 15.8383 50.505 13.1464 48.9365C10.5172 47.368 8.20087 45.4231 6.26021 43.1018C4.31955 40.7804 2.81709 38.2081 1.69025 35.3221C0.563416 32.4361 7.62939e-06 29.2992 7.62939e-06 26.0367C7.62939e-06 22.4606 0.688622 19.1354 2.06586 15.9985C3.44311 12.8615 5.32117 10.101 7.70005 7.7169C10.0789 5.33282 12.896 3.45065 16.0261 2.07039C19.2188 0.690125 22.4741 0 25.9799 0C29.6734 0 33.1165 0.690125 36.3092 2.07039C39.5019 3.45065 42.319 5.33282 44.6979 7.7169C47.0768 10.101 48.9548 12.8615 50.2695 15.9985C51.6467 19.1354 52.3353 22.4606 52.3353 26.0367Z" fill="#F8F8F8"/>
</g>
</svg>
