<svg width="70" height="70" viewBox="0 0 70 70" fill="none" xmlns="http://www.w3.org/2000/svg">
<path d="M65.9433 30.0475H61.8691C61.1987 27.0071 59.9962 24.1091 58.3171 21.4873L61.2019 18.6025C61.6585 18.1464 61.9101 17.5394 61.9101 16.8935C61.9101 16.2477 61.6585 15.6412 61.2019 15.1845L56.4555 10.4382C56.2316 10.2131 55.9653 10.0347 55.6719 9.91318C55.3786 9.79171 55.0641 9.72963 54.7466 9.73055C54.1012 9.73055 53.4942 9.98156 53.0381 10.4382L50.1534 13.3235C47.5316 11.6442 44.6336 10.4417 41.5931 9.77156V5.69734C41.5924 5.05678 41.3376 4.44266 40.8847 3.98971C40.4317 3.53676 39.8176 3.28197 39.177 3.28125H32.4636C31.823 3.28183 31.2088 3.53657 30.7558 3.98955C30.3028 4.44253 30.0481 5.05673 30.0475 5.69734V9.77156C27.007 10.4417 24.109 11.6442 21.4873 13.3235L18.6025 10.4382C18.3786 10.2132 18.1124 10.0348 17.8191 9.91329C17.5259 9.79182 17.2115 9.72971 16.8941 9.73055C16.5765 9.72954 16.262 9.79158 15.9686 9.91305C15.6753 10.0345 15.4089 10.213 15.1851 10.4382L10.4387 15.1845C9.98615 15.638 9.73195 16.2525 9.73195 16.8932C9.73195 17.5339 9.98615 18.1485 10.4387 18.602L13.3235 21.4873C11.6441 24.1089 10.4416 27.007 9.77156 30.0475H5.69734C5.05673 30.0481 4.44253 30.3028 3.98955 30.7558C3.53657 31.2088 3.28183 31.823 3.28125 32.4636V39.1765C3.28183 39.8171 3.53657 40.4313 3.98955 40.8843C4.44253 41.3373 5.05673 41.592 5.69734 41.5926H9.77156C10.4418 44.633 11.6443 47.531 13.3235 50.1528L10.4387 53.0381C10.2136 53.262 10.0351 53.5283 9.9136 53.8217C9.79213 54.115 9.73009 54.4296 9.73109 54.7471C9.73109 55.3924 9.98211 55.9995 10.4387 56.4555L15.1856 61.2024C15.4095 61.4275 15.6757 61.6059 15.969 61.7274C16.2622 61.8489 16.5766 61.9109 16.8941 61.9101C17.5394 61.9101 18.1464 61.6591 18.6025 61.2024L21.4873 58.3171C24.1091 59.9963 27.0071 61.1987 30.0475 61.8691V65.9433C30.0481 66.5839 30.3028 67.1981 30.7558 67.6511C31.2088 68.1041 31.823 68.3588 32.4636 68.3594H39.1765C39.8171 68.3588 40.4313 68.1041 40.8843 67.6511C41.3373 67.1981 41.592 66.5839 41.5926 65.9433V61.8691C44.633 61.1987 47.531 59.9963 50.1528 58.3171L53.0376 61.2024C53.2614 61.4275 53.5277 61.6059 53.8209 61.7273C54.1142 61.8488 54.4286 61.9109 54.746 61.9101C55.0635 61.9111 55.3781 61.849 55.6714 61.7276C55.9648 61.6061 56.2311 61.4276 56.455 61.2024L61.2013 56.4561C61.658 56 61.9095 55.393 61.9095 54.7471C61.9095 54.1012 61.658 53.4942 61.2013 53.0381L58.3166 50.1528C59.9961 47.5312 61.1986 44.6331 61.8685 41.5926H65.9427C66.5833 41.592 67.1976 41.3373 67.6505 40.8843C68.1035 40.4313 68.3582 39.8171 68.3588 39.1765V32.4636C68.3584 31.823 68.1038 31.2088 67.6509 30.7558C67.198 30.3028 66.5838 30.0481 65.9433 30.0475Z" fill="#E6E7E8"/>
<path d="M34.495 52.7341C45.0555 52.2619 53.2337 43.3181 52.7615 32.7576C52.2894 22.1971 43.3456 14.0189 32.7851 14.491C22.2246 14.9632 14.0463 23.9069 14.5185 34.4675C14.9907 45.028 23.9344 53.2062 34.495 52.7341Z" fill="#D4FBFF"/>
<path d="M65.625 36.989V30.2761C65.625 29.7803 65.4281 29.3049 65.0775 28.9544C64.727 28.6038 64.2515 28.4069 63.7558 28.4069H59.238C58.5711 25.1301 57.2778 22.0129 55.4291 19.2265L58.6277 16.0278C58.8013 15.8542 58.939 15.6482 59.033 15.4214C59.1269 15.1946 59.1753 14.9515 59.1753 14.706C59.1753 14.4605 59.1269 14.2175 59.033 13.9907C58.939 13.7639 58.8013 13.5578 58.6277 13.3842L53.8809 8.63734C53.7073 8.46375 53.5012 8.32605 53.2744 8.2321C53.0476 8.13816 52.8045 8.0898 52.5591 8.0898C52.3136 8.0898 52.0705 8.13816 51.8437 8.2321C51.6169 8.32605 51.4108 8.46375 51.2373 8.63734L48.0386 11.836C45.2521 9.98744 42.1349 8.69412 38.8582 8.02703V3.50984C38.8583 3.26435 38.81 3.02126 38.7161 2.79444C38.6222 2.56762 38.4845 2.36153 38.3109 2.18795C38.1373 2.01436 37.9312 1.87668 37.7044 1.78276C37.4776 1.68885 37.2345 1.64055 36.989 1.64063H30.2766C29.7809 1.64063 29.3055 1.83756 28.9549 2.18811C28.6044 2.53865 28.4074 3.0141 28.4074 3.50984V8.02758C25.1306 8.69418 22.0133 9.98754 19.227 11.8366L16.0284 8.63789C15.8548 8.4643 15.6487 8.3266 15.4219 8.23265C15.1951 8.1387 14.952 8.09035 14.7066 8.09035C14.4611 8.09035 14.218 8.1387 13.9912 8.23265C13.7644 8.3266 13.5583 8.4643 13.3848 8.63789L8.63844 13.3848C8.46485 13.5583 8.32715 13.7644 8.2332 13.9912C8.13925 14.218 8.0909 14.4611 8.0909 14.7066C8.0909 14.952 8.13925 15.1951 8.2332 15.4219C8.32715 15.6487 8.46485 15.8548 8.63844 16.0284L11.8371 19.227C9.98858 22.0135 8.69544 25.1307 8.02867 28.4074H3.50984C3.26438 28.4073 3.02129 28.4555 2.79448 28.5494C2.56767 28.6432 2.36157 28.7808 2.18798 28.9544C2.01438 29.1279 1.87669 29.334 1.78278 29.5608C1.68886 29.7876 1.64055 30.0306 1.64063 30.2761V36.989C1.64063 37.2345 1.68897 37.4775 1.78291 37.7043C1.87685 37.9311 2.01453 38.1371 2.18811 38.3107C2.36168 38.4843 2.56774 38.622 2.79452 38.7159C3.02131 38.8099 3.26437 38.8582 3.50984 38.8582H8.02758C8.69452 42.135 9.98785 45.2521 11.8366 48.0386L8.63789 51.2373C8.4643 51.4108 8.3266 51.6169 8.23265 51.8437C8.1387 52.0705 8.09035 52.3136 8.09035 52.5591C8.09035 52.8045 8.1387 53.0476 8.23265 53.2744C8.3266 53.5012 8.4643 53.7073 8.63789 53.8809L13.3848 58.6277C13.5583 58.8013 13.7644 58.939 13.9912 59.033C14.218 59.1269 14.4611 59.1753 14.7066 59.1753C14.952 59.1753 15.1951 59.1269 15.4219 59.033C15.6487 58.939 15.8548 58.8013 16.0284 58.6277L19.227 55.4291C22.0135 57.2776 25.1307 58.571 28.4074 59.238V63.7558C28.4074 64.2515 28.6044 64.727 28.9549 65.0775C29.3055 65.4281 29.7809 65.625 30.2766 65.625H36.9895C37.4853 65.625 37.9607 65.4281 38.3113 65.0775C38.6618 64.727 38.8587 64.2515 38.8587 63.7558V59.238C42.1355 58.5712 45.2527 57.2779 48.0391 55.4291L51.2378 58.6277C51.4114 58.8013 51.6175 58.939 51.8443 59.033C52.071 59.1269 52.3141 59.1753 52.5596 59.1753C52.8051 59.1753 53.0482 59.1269 53.275 59.033C53.5018 58.939 53.7078 58.8013 53.8814 58.6277L58.6283 53.8809C58.8019 53.7073 58.9396 53.5012 59.0335 53.2744C59.1275 53.0476 59.1758 52.8045 59.1758 52.5591C59.1758 52.3136 59.1275 52.0705 59.0335 51.8437C58.9396 51.6169 58.8019 51.4108 58.6283 51.2373L55.4296 48.0386C57.2781 45.252 58.5714 42.1349 59.2386 38.8582H63.7563C64.0018 38.8582 64.2448 38.8098 64.4716 38.7159C64.6983 38.622 64.9043 38.4843 65.0779 38.3107C65.2514 38.1371 65.389 37.931 65.4829 37.7043C65.5768 37.4775 65.6251 37.2344 65.625 36.989ZM33.6328 52.7734C23.0617 52.7734 14.4922 44.2039 14.4922 33.6328C14.4922 23.0617 23.0617 14.4922 33.6328 14.4922C44.2039 14.4922 52.7734 23.0617 52.7734 33.6328C52.7734 44.2039 44.2039 52.7734 33.6328 52.7734Z" fill="#0089EF"/>
<path d="M45.9375 42.0645V37.0344C45.9375 34.014 43.4891 31.5656 40.4688 31.5656H26.7969C23.7765 31.5656 21.3281 34.014 21.3281 37.0344V42.0645H45.9375Z" fill="#6DC9F7"/>
<path d="M21.3281 40.4239H45.9375V42.0645H21.3281V40.4239Z" fill="white"/>
<path d="M33.6329 32.6167L31.9644 34.6779L32.8563 37.3789H34.4094L35.3014 34.6779L33.6329 32.6167ZM34.6922 42.0645L34.4094 37.3789H32.8563L32.5736 42.0645H34.6922Z" fill="#FA759E"/>
<path d="M41.3634 25.0042C41.3634 29.2556 37.9022 32.702 33.6327 32.702C29.3633 32.702 25.9021 29.2556 25.9021 25.0042C25.9021 20.7528 29.3633 17.3064 33.6327 17.3064C37.9022 17.3064 41.3634 20.7528 41.3634 25.0042Z" fill="white"/>
<path d="M48.3071 53.445H18.9585C18.3783 53.445 17.8219 53.2145 17.4117 52.8043C17.0015 52.394 16.771 51.8376 16.771 51.2575V44.252C16.771 43.6719 17.0015 43.1155 17.4117 42.7052C17.8219 42.295 18.3783 42.0645 18.9585 42.0645H48.3076C48.8878 42.0645 49.4442 42.295 49.8544 42.7052C50.2647 43.1155 50.4951 43.6719 50.4951 44.252V51.2575C50.4948 51.8376 50.2642 52.394 49.8539 52.8042C49.4436 53.2143 48.8873 53.4448 48.3071 53.445Z" fill="white"/>
<path d="M33.6328 13.9453C22.7768 13.9453 13.9453 22.7768 13.9453 33.6328C13.9442 36.9802 14.8027 40.2718 16.4385 43.1922C16.2967 43.5275 16.2238 43.888 16.2241 44.252V51.2575C16.2241 52.7652 17.4508 53.9919 18.9585 53.9919H30.0054C30.1504 53.9919 30.2895 53.9343 30.3921 53.8317C30.4947 53.7291 30.5523 53.59 30.5523 53.445C30.5523 53.3 30.4947 53.1609 30.3921 53.0583C30.2895 52.9557 30.1504 52.8981 30.0054 52.8981H18.9585C18.054 52.8981 17.3179 52.162 17.3179 51.2575V44.252C17.3179 43.3475 18.054 42.6114 18.9585 42.6114H48.3071C49.2116 42.6114 49.9477 43.3475 49.9477 44.252V51.2575C49.9477 52.162 49.2116 52.8981 48.3071 52.8981H40.4004C40.2554 52.8981 40.1163 52.9557 40.0137 53.0583C39.9111 53.1609 39.8535 53.3 39.8535 53.445C39.8535 53.59 39.9111 53.7291 40.0137 53.8317C40.1163 53.9343 40.2554 53.9919 40.4004 53.9919H48.3071C49.8148 53.9919 51.0415 52.7652 51.0415 51.2575V44.252C51.0415 43.8763 50.9649 43.5181 50.8271 43.1922C52.463 40.2718 53.3214 36.9802 53.3203 33.6328C53.3203 22.7768 44.4888 13.9453 33.6328 13.9453ZM45.3906 41.5177H35.2067L34.9617 37.45L35.5064 35.8006L36.2939 36.7735C36.3984 36.9031 36.6445 36.9945 36.7992 36.9704C36.9901 36.9409 37.1525 36.8145 37.2252 36.6357L39.0677 32.1125H40.4688C43.1829 32.1125 45.3906 34.3208 45.3906 37.0344V41.5177ZM29.4602 32.1125C30.3913 32.6573 31.4206 33.0133 32.4893 33.1603L30.7048 35.3659L29.3798 32.1125H29.4602ZM37.8055 32.1125H37.8859L36.5608 35.3659L34.7763 33.1603C35.8449 33.0129 36.8742 32.6568 37.8055 32.1125ZM32.5773 34.79L33.6328 33.4862L34.6883 34.79L34.0145 36.832H33.2516L32.5773 34.79ZM33.3709 37.9258H33.8942L34.1108 41.5177H33.1548L33.3709 37.9258ZM33.6328 32.1546C29.6718 32.1546 26.4491 28.9466 26.4491 25.0037C26.4491 21.0607 29.6718 17.8533 33.6328 17.8533C37.5938 17.8533 40.8166 21.0613 40.8166 25.0042C40.8166 28.9472 37.5938 32.1546 33.6328 32.1546ZM28.1985 32.112L30.0409 36.6352C30.1137 36.8145 30.2766 36.9365 30.467 36.9698C30.6409 37.0005 30.8673 36.902 30.9723 36.773L31.7598 35.8001L32.3045 37.4495L32.0595 41.5171H21.875V37.0333C21.875 34.3197 24.0827 32.1114 26.7969 32.1114L28.1985 32.112ZM50.1107 42.2133C49.6278 41.7856 49.0006 41.5177 48.3071 41.5177H46.4844V37.0338C46.4844 33.717 43.7856 31.0182 40.4688 31.0182H39.276C40.8926 29.5127 41.9098 27.3771 41.9098 25.0037C41.9098 20.4575 38.1965 16.759 33.6323 16.759C29.0681 16.759 25.3548 20.4575 25.3548 25.0037C25.3548 27.3766 26.3725 29.5127 27.9885 31.0182H26.7969C23.4801 31.0182 20.7813 33.717 20.7813 37.0338V41.5177H18.9585C18.2645 41.5177 17.6373 41.7856 17.1549 42.2133C15.7649 39.5668 15.0388 36.6221 15.0391 33.6328C15.0391 23.38 23.38 15.0391 33.6328 15.0391C43.8856 15.0391 52.2266 23.38 52.2266 33.6328C52.2266 36.7287 51.4555 39.643 50.1107 42.2133Z" fill="#3A2C60"/>
<path d="M63.7558 27.86H59.6816C59.0112 24.8196 57.8087 21.9216 56.1296 19.2998L59.0144 16.4145C59.467 15.961 59.7212 15.3464 59.7212 14.7057C59.7212 14.065 59.467 13.4505 59.0144 12.997L54.268 8.2507C54.0441 8.0256 53.7778 7.84715 53.4844 7.72568C53.1911 7.60421 52.8766 7.54214 52.5591 7.54305C51.9137 7.54305 51.3067 7.79406 50.8506 8.2507L47.9659 11.136C45.3441 9.45668 42.4461 8.25418 39.4056 7.58406V3.50984C39.4049 2.86928 39.1501 2.25516 38.6972 1.80221C38.2442 1.34926 37.6301 1.09447 36.9895 1.09375H30.2761C29.6355 1.09433 29.0213 1.34907 28.5683 1.80205C28.1153 2.25503 27.8606 2.86923 27.86 3.50984V7.58406C24.8195 8.25418 21.9215 9.45668 19.2998 11.136L16.415 8.2507C16.1912 8.02567 15.9249 7.84725 15.6316 7.72579C15.3384 7.60432 15.024 7.54221 14.7066 7.54305C14.389 7.54204 14.0745 7.60408 13.7811 7.72555C13.4878 7.84703 13.2214 8.02553 12.9976 8.2507L8.25125 12.997C7.79865 13.4505 7.54445 14.065 7.54445 14.7057C7.54445 15.3464 7.79865 15.961 8.25125 16.4145L11.136 19.2998C9.45658 21.9214 8.25407 24.8195 7.58406 27.86H3.50984C2.86923 27.8606 2.25503 28.1153 1.80205 28.5683C1.34907 29.0213 1.09433 29.6355 1.09375 30.2761V36.989C1.09433 37.6296 1.34907 38.2438 1.80205 38.6968C2.25503 39.1498 2.86923 39.4045 3.50984 39.4051H7.58406C8.25413 42.4454 9.45664 45.3433 11.136 47.9648L8.2507 50.8501C7.79837 51.3037 7.54435 51.9182 7.54435 52.5588C7.54435 53.1994 7.79837 53.8139 8.2507 54.2675L12.9976 59.0144C13.2215 59.2395 13.4878 59.4179 13.7812 59.5394C14.0745 59.6609 14.3891 59.7229 14.7066 59.722C15.3519 59.722 15.9589 59.471 16.415 59.0144L19.2998 56.1291C21.9215 57.8084 24.8195 59.0109 27.86 59.681V63.7552C27.8606 64.3958 28.1153 65.0101 28.5683 65.463C29.0213 65.916 29.6355 66.1707 30.2761 66.1713H36.989C37.6296 66.1707 38.2438 65.916 38.6968 65.463C39.1498 65.0101 39.4045 64.3958 39.4051 63.7552V59.681C42.4456 59.0109 45.3436 57.8084 47.9653 56.1291L50.8501 59.0144C51.0739 59.2394 51.3402 59.4178 51.6334 59.5393C51.9267 59.6608 52.2411 59.7229 52.5585 59.722C52.876 59.723 53.1906 59.661 53.4839 59.5395C53.7773 59.4181 54.0436 59.2396 54.2675 59.0144L59.0138 54.2675C59.239 54.0437 59.4174 53.7775 59.5389 53.4842C59.6604 53.191 59.7224 52.8765 59.7215 52.5591C59.7215 51.9132 59.4705 51.3067 59.0138 50.8501L56.1291 47.9648C57.8086 45.3431 59.0111 42.4451 59.681 39.4045H63.7552C64.3958 39.404 65.0101 39.1492 65.463 38.6962C65.916 38.2433 66.1707 37.629 66.1713 36.9884V30.2761C66.1709 29.6355 65.9163 29.0213 65.4634 28.5683C65.0105 28.1153 64.3963 27.8606 63.7558 27.86ZM65.0781 36.989C65.0777 37.3396 64.9382 37.6757 64.6903 37.9235C64.4424 38.1714 64.1064 38.3109 63.7558 38.3113H59.238C59.1119 38.3113 58.9896 38.3549 58.892 38.4348C58.7943 38.5146 58.7272 38.6258 58.7021 38.7494C58.0518 41.9578 56.7856 45.0098 54.9735 47.7362C54.9039 47.8413 54.8728 47.9673 54.8855 48.0928C54.8981 48.2183 54.9538 48.3355 55.043 48.4247L58.2416 51.6234C58.4916 51.8733 58.6288 52.2052 58.6288 52.5585C58.6288 52.9118 58.4916 53.2438 58.2416 53.4937L53.4953 58.2405C53.247 58.4882 52.9106 58.6273 52.5599 58.6273C52.2092 58.6273 51.8728 58.4882 51.6245 58.2405L48.4258 55.0419C48.3366 54.9527 48.2194 54.8971 48.0939 54.8844C47.9684 54.8717 47.8424 54.9028 47.7373 54.9724C45.0104 56.7844 41.9581 58.0507 38.7494 58.701C38.6258 58.7261 38.5146 58.7932 38.4348 58.8909C38.3549 58.9885 38.3113 59.1108 38.3113 59.237V63.7547C38.3109 64.1053 38.1714 64.4414 37.9235 64.6892C37.6757 64.9371 37.3396 65.0766 36.989 65.077H30.2761C29.9255 65.0766 29.5894 64.9371 29.3415 64.6892C29.0936 64.4414 28.9542 64.1053 28.9538 63.7547V59.237C28.9538 59.1108 28.9101 58.9885 28.8303 58.8909C28.7505 58.7932 28.6393 58.7261 28.5157 58.701C25.307 58.0506 22.2547 56.7843 19.5278 54.9724C19.4226 54.9028 19.2966 54.8717 19.1712 54.8844C19.0457 54.8971 18.9285 54.9527 18.8393 55.0419L15.6406 58.2405C15.3924 58.4884 15.056 58.6276 14.7052 58.6276C14.3544 58.6276 14.018 58.4884 13.7698 58.2405L9.02289 53.4937C8.7755 53.2453 8.6366 52.9091 8.6366 52.5585C8.6366 52.208 8.7755 51.8717 9.02289 51.6234L12.2221 48.4247C12.3113 48.3355 12.3669 48.2183 12.3796 48.0928C12.3922 47.9673 12.3611 47.8413 12.2916 47.7362C10.4795 45.0098 9.21324 41.9578 8.56297 38.7494C8.53787 38.6258 8.47079 38.5146 8.37312 38.4348C8.27545 38.3549 8.15318 38.3113 8.02703 38.3113H3.50984C3.15923 38.311 2.82305 38.1716 2.57513 37.9237C2.3272 37.6758 2.18779 37.3396 2.1875 36.989V30.2761C2.18793 29.9255 2.32739 29.5894 2.57529 29.3415C2.82318 29.0936 3.15927 28.9542 3.50984 28.9538H8.02758C8.15373 28.9538 8.276 28.9101 8.37367 28.8303C8.47134 28.7505 8.53841 28.6393 8.56352 28.5157C9.21388 25.3073 10.4801 22.2554 12.2921 19.5289C12.3617 19.4237 12.3928 19.2977 12.3801 19.1723C12.3675 19.0468 12.3118 18.9296 12.2227 18.8404L9.02398 15.6417C8.77406 15.3918 8.6368 15.0598 8.6368 14.7066C8.6368 14.3533 8.77406 14.0213 9.02398 13.7714L13.7703 9.02508C14.0187 8.77752 14.3551 8.63851 14.7057 8.63851C15.0564 8.63851 15.3928 8.77752 15.6412 9.02508L18.8398 12.2237C18.9291 12.3129 19.0463 12.3684 19.1718 12.3809C19.2973 12.3935 19.4232 12.3623 19.5284 12.2927C22.2552 10.4806 25.3075 9.21442 28.5163 8.56406C28.6399 8.53896 28.751 8.47189 28.8309 8.37422C28.9107 8.27654 28.9543 8.15427 28.9543 8.02813V3.51094C28.9543 3.16022 29.0935 2.82385 29.3413 2.57571C29.5892 2.32756 29.9254 2.18793 30.2761 2.1875H36.989C37.3396 2.18793 37.6757 2.32739 37.9235 2.57529C38.1714 2.82318 38.3109 3.15927 38.3113 3.50984V8.02703C38.3113 8.15318 38.3549 8.27545 38.4348 8.37312C38.5146 8.47079 38.6258 8.53787 38.7494 8.56297C41.958 9.21367 45.0102 10.4799 47.7373 12.2916C47.8424 12.3612 47.9683 12.3924 48.0938 12.3798C48.2193 12.3673 48.3366 12.3118 48.4258 12.2227L51.6245 9.02398C51.8728 8.77643 52.2092 8.63742 52.5599 8.63742C52.9106 8.63742 53.2469 8.77643 53.4953 9.02398L58.2416 13.7703C58.4916 14.0202 58.6288 14.3522 58.6288 14.7055C58.6288 15.0588 58.4916 15.3907 58.2416 15.6406L55.043 18.8393C54.9538 18.9285 54.8981 19.0457 54.8855 19.1712C54.8728 19.2966 54.9039 19.4226 54.9735 19.5278C56.7854 22.2543 58.0516 25.3062 58.7021 28.5146C58.7272 28.6382 58.7943 28.7494 58.892 28.8292C58.9896 28.909 59.1119 28.9527 59.238 28.9527H63.7558C64.1064 28.9531 64.4424 29.0925 64.6903 29.3404C64.9382 29.5883 65.0777 29.9244 65.0781 30.275V36.989Z" fill="#3A2C60"/>
<path d="M37.5681 52.8981H32.8809C32.7358 52.8981 32.5967 52.9558 32.4942 53.0583C32.3916 53.1609 32.334 53.3 32.334 53.445C32.334 53.59 32.3916 53.7291 32.4942 53.8317C32.5967 53.9343 32.7358 53.9919 32.8809 53.9919H37.5681C37.7132 53.9919 37.8523 53.9343 37.9548 53.8317C38.0574 53.7291 38.115 53.59 38.115 53.445C38.115 53.3 38.0574 53.1609 37.9548 53.0583C37.8523 52.9558 37.7132 52.8981 37.5681 52.8981Z" fill="#3A2C60"/>
<path d="M33.8708 44.7437L34.562 46.871H36.7987C37.041 46.871 37.1416 47.1811 36.9458 47.3233L35.1362 48.638L35.8275 50.7653C35.8438 50.8155 35.8438 50.8695 35.8274 50.9197C35.8111 50.9699 35.7794 51.0136 35.7367 51.0446C35.694 51.0756 35.6426 51.0923 35.5899 51.0924C35.5371 51.0924 35.4857 51.0757 35.443 51.0448L33.6329 49.7301L31.8233 51.0448C31.7806 51.0757 31.7291 51.0924 31.6764 51.0924C31.6236 51.0923 31.5723 51.0756 31.5296 51.0446C31.4869 51.0136 31.4551 50.9699 31.4388 50.9197C31.4225 50.8695 31.4225 50.8155 31.4388 50.7653L32.1301 48.638L30.3204 47.3233C30.2777 47.2923 30.2458 47.2485 30.2295 47.1982C30.2131 47.148 30.2131 47.0939 30.2295 47.0436C30.2458 46.9934 30.2777 46.9496 30.3204 46.9186C30.3632 46.8876 30.4147 46.8709 30.4676 46.871H32.7043L33.3955 44.7437C33.4119 44.6935 33.4437 44.6498 33.4863 44.6189C33.529 44.5879 33.5804 44.5712 33.6331 44.5712C33.6859 44.5712 33.7373 44.5879 33.7799 44.6189C33.8226 44.6498 33.8544 44.6935 33.8708 44.7437ZM24.1342 44.7437L24.8254 46.871H27.0622C27.3044 46.871 27.4051 47.1811 27.2093 47.3233L25.3997 48.638L26.0909 50.7653C26.1072 50.8155 26.1072 50.8695 26.0909 50.9197C26.0746 50.9699 26.0428 51.0136 26.0001 51.0446C25.9575 51.0756 25.9061 51.0923 25.8533 51.0924C25.8006 51.0924 25.7492 51.0757 25.7065 51.0448L23.8969 49.7301L22.0872 51.0448C22.0445 51.0757 21.9931 51.0924 21.9404 51.0924C21.8876 51.0923 21.8362 51.0756 21.7936 51.0446C21.7509 51.0136 21.7191 50.9699 21.7028 50.9197C21.6865 50.8695 21.6865 50.8155 21.7028 50.7653L22.394 48.638L20.5844 47.3233C20.5417 47.2923 20.5098 47.2485 20.4935 47.1982C20.4771 47.148 20.4771 47.0939 20.4935 47.0436C20.5098 46.9934 20.5416 46.9496 20.5844 46.9186C20.6272 46.8876 20.6787 46.8709 20.7315 46.871H22.9683L23.6595 44.7437C23.7333 44.5134 24.0593 44.5134 24.1342 44.7437ZM43.6073 44.7437L44.2986 46.871H46.5353C46.7776 46.871 46.8782 47.1811 46.6824 47.3233L44.8728 48.638L45.564 50.7653C45.5803 50.8155 45.5803 50.8695 45.564 50.9197C45.5477 50.9699 45.5159 51.0136 45.4733 51.0446C45.4306 51.0756 45.3792 51.0923 45.3265 51.0924C45.2737 51.0924 45.2223 51.0757 45.1796 51.0448L43.37 49.7301L41.5604 51.0448C41.5177 51.0757 41.4663 51.0924 41.4135 51.0924C41.3608 51.0923 41.3094 51.0756 41.2667 51.0446C41.224 51.0136 41.1923 50.9699 41.176 50.9197C41.1596 50.8695 41.1596 50.8155 41.1759 50.7653L41.8672 48.638L40.0576 47.3233C40.0148 47.2923 39.9829 47.2485 39.9666 47.1982C39.9502 47.148 39.9502 47.0939 39.9666 47.0436C39.9829 46.9934 40.0148 46.9496 40.0576 46.9186C40.1003 46.8876 40.1518 46.8709 40.2047 46.871H42.4414L43.1326 44.7437C43.2065 44.5134 43.5324 44.5134 43.6073 44.7437Z" fill="#C9003E"/>
</svg>
