<svg width="70" height="70" viewBox="0 0 70 70" fill="none" xmlns="http://www.w3.org/2000/svg">
<path d="M52.5 25.1562L34.4531 14.2188L19.6875 17.5L9.29688 20.7812L13.6719 47.5781L11.4844 62.3438L15.3125 65.0781L30.0781 67.2656H59.6094L52.5 25.1562Z" fill="#F6D2A6"/>
<path d="M4.92188 47.0312C3.93825 48.0723 3.35675 49.4291 3.28125 50.8593C3.28125 53.0468 4.04688 55.7812 7.10938 55.7812C10.1719 55.7812 23.5156 55.2343 23.5156 50.8593C23.5156 46.4843 7.37187 45.3906 4.92188 47.0312Z" fill="#F6D2A6"/>
<path d="M7.65625 56.3281C6.67263 57.3692 6.09113 58.726 6.01562 60.1562C6.01562 62.3438 6.78125 65.0781 9.84375 65.0781C12.9062 65.0781 26.25 64.5312 26.25 60.1562C26.25 55.7812 10.1062 54.6875 7.65625 56.3281ZM9.29688 28.9844C9.29688 28.9844 3.82812 35.5469 3.82812 38.2812C3.82812 41.0156 10.3906 45.9375 13.6719 46.4844C16.9531 47.0312 25.1562 46.4844 25.1562 43.75C25.1562 41.0156 20.7812 37.7344 15.3125 37.1875L13.6719 31.7188" fill="#EEBF90"/>
<path d="M37.1875 31.1718L25.7031 35C22.8156 35.9843 20.8468 39.2328 21.875 42.1093L29.5312 63.9843C29.8569 64.8285 30.4859 65.5206 31.2951 65.9252C32.1044 66.3298 33.0355 66.4178 33.9062 66.1718L50.3781 60.7031C50.805 60.5556 51.1986 60.3253 51.5364 60.0255C51.8741 59.7256 52.1495 59.3621 52.3466 58.9557C52.5437 58.5494 52.6587 58.1081 52.685 57.6572C52.7113 57.2063 52.6484 56.7546 52.5 56.3281L44.2968 34.4531C43.7642 33.0945 42.7269 31.9944 41.402 31.3829C40.077 30.7714 38.5669 30.6957 37.1875 31.1718Z" fill="#9E1DB0"/>
<path d="M28.9844 8.75L18.0469 12.0312L25.7031 35L37.1875 31.1719L28.9844 8.75Z" fill="#252A2A"/>
<path d="M19.6875 17.5C18.0469 17.5 9.29686 19.1406 8.20311 21.875C7.10936 24.6094 10.5984 35.3937 14.2187 36.75C18.5937 38.3906 30.5156 41.125 31.1719 37.8437C32.2656 32.375 26.25 29.0938 19.6875 29.0938L17.5 23.0781" fill="#F6D2A6"/>
<path d="M32.2656 38.8281C32.0796 40.5453 21.3281 37.7344 20.2343 37.1875C19.1406 36.6406 20.2343 32.8125 21.875 32.2656C23.5156 31.7188 32.8125 33.9062 32.2656 38.8281ZM26.25 47.0312C26.064 48.7484 15.3125 45.9375 14.2187 45.3906C13.125 44.8438 14.2187 41.0156 15.8593 40.4688C17.5 39.9219 26.775 42.1094 26.25 47.0312ZM25.1562 50.8594C25.1562 53.0469 15.3125 54.6875 14.7656 53.5938C14.2187 52.5 13.6718 48.6719 15.8593 48.6719C18.0468 48.6719 25.1562 48.6719 25.1562 50.8594ZM27.8906 60.1562C27.8906 62.3438 19.1406 62.8906 18.0468 62.3438C15.8593 61.25 16.4062 57.9688 18.5937 57.9688C20.7812 57.9688 27.8906 57.9688 27.8906 60.1562Z" fill="#FF4BE5"/>
<path d="M56.875 57.9688C51.4759 55.1057 47.2274 50.4709 44.8437 44.8438C41.0156 35.5469 44.8437 28.4375 44.8437 28.4375L37.1875 20.2344C34.1399 18.8382 31.2132 17.1919 28.4375 15.3125C22.8812 11.6047 26.25 3.82812 26.25 3.82812L56.875 21.3281L67.2656 37.7344V67.2656H59.0625" fill="#FAE0BB"/>
<path d="M25.1562 2.73438C25.1562 2.73438 23.4281 6.36562 27.3437 9.29688C28.6586 10.2833 30.1407 11.0244 31.7187 11.4844C32.4957 11.472 33.2451 11.1939 33.842 10.6964C34.439 10.1989 34.8477 9.51202 35 8.75L25.1562 2.73438Z" fill="#FF4BE5"/>
<path d="M29.5312 50.3125C29.4201 50.3133 29.3114 50.2802 29.2196 50.2177C29.1278 50.1551 29.0572 50.0661 29.0172 49.9625L27.3766 45.5875C27.3325 45.4762 27.3263 45.3535 27.3587 45.2383C27.3911 45.123 27.4605 45.0216 27.5561 44.9496C27.6517 44.8776 27.7683 44.8389 27.888 44.8396C28.0077 44.8402 28.1239 44.8801 28.2187 44.9531L31.0953 47.1406L30.1109 44.5156C30.0602 44.3793 30.0656 44.2283 30.1261 44.096C30.1867 43.9637 30.2972 43.8609 30.4336 43.8101C30.5699 43.7594 30.7208 43.7648 30.8531 43.8254C30.9854 43.8859 31.0883 43.9965 31.139 44.1328L32.7797 48.5078C32.8237 48.6191 32.8299 48.7418 32.7975 48.857C32.7651 48.9722 32.6957 49.0736 32.6001 49.1457C32.5045 49.2177 32.3879 49.2563 32.2682 49.2557C32.1485 49.2551 32.0323 49.2152 31.9375 49.1422L29.0609 46.9547L30.0453 49.5797C30.0752 49.6622 30.0847 49.7508 30.0731 49.8378C30.0615 49.9248 30.0291 50.0078 29.9787 50.0797C29.9283 50.1515 29.8613 50.2102 29.7834 50.2507C29.7055 50.2913 29.619 50.3124 29.5312 50.3125ZM33.9062 48.6719C33.7719 48.6728 33.6419 48.6243 33.541 48.5355C33.4401 48.4468 33.3755 48.324 33.3594 48.1906L32.8125 43.2687C32.7985 43.1517 32.8228 43.0333 32.8815 42.9312C32.9403 42.8291 33.0305 42.7486 33.1387 42.7019C33.2469 42.6552 33.3673 42.6447 33.4819 42.6719C33.5966 42.6992 33.6994 42.7627 33.775 42.8531L37.0562 46.6812C37.1029 46.7358 37.1384 46.7991 37.1606 46.8673C37.1829 46.9356 37.1914 47.0076 37.1859 47.0792C37.1803 47.1508 37.1606 47.2206 37.1281 47.2847C37.0955 47.3487 37.0507 47.4056 36.9961 47.4523C36.9415 47.499 36.8783 47.5345 36.81 47.5567C36.7417 47.579 36.6697 47.5875 36.5981 47.5819C36.5265 47.5764 36.4567 47.5567 36.3927 47.5242C36.3286 47.4916 36.2717 47.4468 36.225 47.3922L34.1031 44.9094L34.4531 48.0703C34.4685 48.2138 34.4265 48.3575 34.3364 48.4702C34.2462 48.5829 34.1152 48.6554 33.9719 48.6719H33.9062ZM38.2812 47.0312C38.1701 47.032 38.0614 46.9989 37.9696 46.9364C37.8778 46.8739 37.8072 46.7849 37.7672 46.6812L36.1265 42.3062C36.1014 42.2387 36.0898 42.1669 36.0924 42.0949C36.095 42.0229 36.1118 41.9522 36.1418 41.8867C36.1717 41.8212 36.2143 41.7622 36.2671 41.7131C36.3198 41.6641 36.3817 41.6259 36.4492 41.6008C36.5167 41.5756 36.5885 41.564 36.6605 41.5666C36.7325 41.5693 36.8033 41.586 36.8688 41.616C36.9343 41.6459 36.9932 41.6885 37.0423 41.7413C37.0914 41.794 37.1295 41.8559 37.1547 41.9234L38.7953 46.2984C38.8252 46.381 38.8347 46.4695 38.8231 46.5566C38.8115 46.6436 38.7791 46.7265 38.7287 46.7984C38.6783 46.8703 38.6113 46.929 38.5334 46.9695C38.4555 47.01 38.369 47.0312 38.2812 47.0312Z" fill="#FD83FF"/>
<path d="M33.9062 47.0312C33.7612 47.0544 33.6129 47.0191 33.4939 46.9329C33.3749 46.8468 33.2951 46.7169 33.2719 46.5719C33.2486 46.4268 33.284 46.2785 33.3702 46.1595C33.4563 46.0406 33.5862 45.9607 33.7312 45.9375L35.3719 45.3906C35.4401 45.3676 35.5122 45.3583 35.584 45.3632C35.6558 45.3681 35.726 45.387 35.7905 45.419C35.855 45.451 35.9125 45.4954 35.9599 45.5496C36.0072 45.6039 36.0434 45.6669 36.0664 45.7351C36.0894 45.8034 36.0987 45.8754 36.0938 45.9473C36.0889 46.0191 36.07 46.0893 36.038 46.1538C36.006 46.2183 35.9616 46.2758 35.9073 46.3232C35.8531 46.3705 35.7901 46.4067 35.7219 46.4297L34.0812 46.9765L33.9062 47.0312ZM39.9219 46.4844C39.8108 46.4851 39.7021 46.4521 39.6102 46.3895C39.5184 46.327 39.4478 46.238 39.4078 46.1344L37.7672 41.7594C37.7164 41.623 37.7219 41.4721 37.7824 41.3398C37.8429 41.2075 37.9535 41.1047 38.0898 41.0539C38.2262 41.0031 38.3771 41.0086 38.5094 41.0691C38.6417 41.1296 38.7445 41.2402 38.7953 41.3765L40.239 45.2265L42.4265 44.3406C42.5614 44.2869 42.7121 44.2891 42.8454 44.3465C42.9788 44.4039 43.0838 44.512 43.1375 44.6469C43.1911 44.7817 43.189 44.9324 43.1316 45.0658C43.0742 45.1991 42.9661 45.3041 42.8312 45.3578L40.0969 46.4515C40.0407 46.472 39.9816 46.4831 39.9219 46.4844Z" fill="#FD83FF"/>
<path d="M29.5312 52.5L42.6562 47.5781L43.75 50.3125L30.625 55.2344L29.5312 52.5Z" fill="#FF4BE5"/>
<path d="M67.725 37.439L57.3344 21.0328C57.2884 20.9566 57.2246 20.8928 57.1484 20.8468L35.4156 8.44372C35.3822 8.38468 35.3376 8.33268 35.2844 8.2906L25.4406 2.27497C25.3755 2.23537 25.3027 2.20983 25.2271 2.2C25.1515 2.19017 25.0746 2.19626 25.0015 2.21789C24.9284 2.23952 24.8606 2.27621 24.8025 2.3256C24.7443 2.37498 24.6972 2.43598 24.6641 2.50466C24.367 3.2499 24.2273 4.04852 24.2536 4.85035C24.28 5.65219 24.4718 6.43991 24.8172 7.16404C24.71 7.92465 24.6734 8.69355 24.7078 9.46091L17.8828 11.5062C17.8124 11.5273 17.7469 11.5624 17.6903 11.6093C17.6338 11.6563 17.5873 11.7142 17.5536 11.7795C17.5199 11.8449 17.4997 11.9163 17.4943 11.9896C17.4888 12.063 17.4982 12.1366 17.5219 12.2062L19.1187 16.9968C16.5812 17.2484 8.81563 18.8562 7.68906 21.6781C7.09844 23.1547 7.68906 26.2062 8.58594 29.0609C8.5223 29.0969 8.46651 29.1452 8.42188 29.2031C6.50781 31.5984 3.28125 35.9734 3.28125 38.2812C3.28125 40.589 7.03281 43.9578 10.3797 45.7734C7.71094 45.7734 5.44688 46.0359 4.53906 46.6484C3.45117 47.7897 2.81054 49.2845 2.73438 50.8593C2.73438 54.2062 4.30937 56.2297 6.94531 56.3281C6.04338 57.4058 5.52412 58.752 5.46875 60.1562C5.46875 63.5797 7.10938 65.625 9.84375 65.625C10.0516 65.625 12.1844 65.625 14.8641 65.3843C14.9053 65.4486 14.9598 65.5034 15.024 65.5449C15.0881 65.5864 15.1604 65.6137 15.2359 65.625L30.0781 67.8125H67.2656C67.4107 67.8125 67.5498 67.7549 67.6523 67.6523C67.7549 67.5497 67.8125 67.4106 67.8125 67.2656V37.7343C67.8116 37.6296 67.7813 37.5273 67.725 37.439ZM25.4516 3.53279L34.3656 9.00153C34.1835 9.54856 33.8388 10.027 33.3776 10.3729C32.9163 10.7188 32.3605 10.9158 31.7844 10.9375C30.304 10.487 28.9126 9.78397 27.6719 8.85935C26.7936 8.31832 26.107 7.51557 25.7088 6.56402C25.3105 5.61246 25.2205 4.56 25.4516 3.55466V3.53279ZM18.7469 12.3703L24.8281 10.5656C24.9747 11.6149 25.3432 12.621 25.9089 13.5168C26.4747 14.4126 27.2248 15.1776 28.1094 15.7609C29.4219 16.6359 30.6687 17.4015 31.7844 18.0468L36.4547 30.8218L30.5484 32.8125C28.9418 30.9106 26.7421 29.6046 24.3031 29.1047L18.7469 12.3703ZM33.2719 18.8562C35.1641 19.8953 36.4875 20.4968 36.8594 20.6609L44.1875 28.5031C43.7133 29.5572 43.3469 30.6566 43.0938 31.7843C42.3332 31.1456 41.4324 30.6958 40.4649 30.4715C39.4974 30.2472 38.4906 30.2548 37.5266 30.4937L33.2719 18.8562ZM31.7188 38.7078C30.625 39.4515 21.7766 37.3515 20.4641 36.7062C20.4641 36.7062 20.3 36.4547 20.3328 35.9078C20.4203 34.7265 21.1969 33.064 22.0281 32.7906C22.2133 32.7402 22.4051 32.718 22.5969 32.725C25.2708 32.898 27.8415 33.8232 30.0125 35.3937C30.5572 35.7534 31.0003 36.2472 31.2991 36.8276C31.5979 37.408 31.7424 38.0554 31.7188 38.7078ZM8.75 22.0828C9.625 19.8953 17.325 18.1672 19.5234 18.0578L23.1219 28.8422C22.1318 28.6702 21.1298 28.5751 20.125 28.5578L18.0688 22.9031C18.0458 22.8337 18.0092 22.7695 17.9611 22.7145C17.913 22.6594 17.8543 22.6146 17.7885 22.5826C17.7228 22.5507 17.6513 22.5322 17.5782 22.5284C17.5052 22.5245 17.4322 22.5353 17.3634 22.5602C17.2947 22.5851 17.2316 22.6235 17.1779 22.6732C17.1243 22.7228 17.0811 22.7828 17.051 22.8494C17.0209 22.916 17.0045 22.988 17.0027 23.0611C17.0009 23.1342 17.0138 23.2069 17.0406 23.275L19.2281 29.2906C19.2663 29.3963 19.3362 29.4876 19.4282 29.5522C19.5202 29.6168 19.6298 29.6515 19.7422 29.6515C24.6531 29.6515 28.6344 31.4125 30.1437 34.0922C27.2562 32.1672 22.9688 31.3359 21.7 31.7187C20.2563 32.2 19.3594 34.3984 19.25 35.7984C19.1406 37.1984 19.6656 37.4937 19.9828 37.6468C20.3788 37.8097 20.7842 37.9485 21.1969 38.0625C18.891 37.6069 16.6211 36.9855 14.4047 36.2031C13.1906 35.7437 11.7906 33.8953 10.5656 31.1172C9.0125 27.6172 8.15938 23.4609 8.75 22.0828ZM4.375 38.2812C4.375 36.6734 6.71562 33.1297 9.0125 30.2203C9.1875 30.6906 9.38438 31.15 9.57031 31.5984C10.3578 33.3812 11.9875 36.4984 14.0328 37.264C15.9178 37.9342 17.843 38.4858 19.7969 38.9156C21.5796 39.6005 23.1075 40.819 24.1719 42.4047C21.3391 40.4031 16.8766 39.5281 15.6187 39.9547C14.2188 40.4687 13.3219 42.6562 13.2125 44.0234C13.1031 45.3906 13.6281 45.7187 13.9453 45.8718L14.2953 46.0031L13.7594 45.9375C10.6094 45.4234 4.375 40.6765 4.375 38.2812ZM25.5391 57.9687C23.8875 56.6672 20.5844 55.7812 17.1938 55.3984C18.9358 55.1039 20.6173 54.5237 22.1703 53.6812C22.2551 53.6281 22.3233 53.5523 22.3672 53.4625C23.2569 53.2063 24.0991 52.8073 24.8609 52.2812L27.0484 58.439C26.5625 58.2315 26.0568 58.074 25.5391 57.9687ZM27.3438 60.1562C27.3438 60.375 27.0484 60.5937 26.8734 60.7031C24.7953 62.0047 18.9547 62.1687 18.2984 61.8515C17.9023 61.6594 17.5835 61.338 17.3946 60.9403C17.2057 60.5426 17.158 60.0925 17.2594 59.664C17.3245 59.3552 17.4936 59.0782 17.7385 58.8791C17.9833 58.68 18.2891 58.571 18.6047 58.5703C26.7094 58.5156 27.3438 59.7734 27.3438 60.1562ZM23.6797 51.7125C21.2188 53.0468 16.0234 53.6812 15.225 53.2765C14.7431 52.1088 14.708 50.8044 15.1266 49.6125C15.1988 49.4841 15.306 49.3789 15.4358 49.3092C15.5656 49.2395 15.7125 49.2081 15.8594 49.2187C23.975 49.2187 24.6094 50.4765 24.6094 50.8593C24.6094 51.0234 24.3687 51.3406 23.6797 51.7125ZM21.2516 47.7312C21.9844 47.8625 22.7063 47.9609 23.3625 48.0265L23.6578 48.8797C23.3729 48.7887 23.0847 48.7085 22.7938 48.639V48.5734C22.3131 48.2355 21.7957 47.9529 21.2516 47.7312ZM14.4375 44.8984C14.4375 44.8984 14.2734 44.6468 14.3062 44.1C14.3938 42.9187 15.1703 41.2562 16.0016 40.9828C16.1868 40.9324 16.3785 40.9102 16.5703 40.9172C19.2443 41.0902 21.8149 42.0153 23.9859 43.5859C24.5258 43.9427 24.9658 44.4312 25.2644 45.0054C25.5629 45.5795 25.7102 46.2203 25.6922 46.8672C24.5766 47.6437 15.7391 45.5547 14.4375 44.8984ZM3.82812 50.8593C3.90496 49.6082 4.39773 48.4186 5.22813 47.4797C6.22344 46.8125 10.2047 46.6484 14.175 47.0968H14.3172C16.1032 47.2832 17.8658 47.6497 19.5781 48.1906C18.3641 48.125 17.0844 48.125 15.8594 48.125C15.5255 48.1157 15.1952 48.196 14.9028 48.3576C14.6104 48.5192 14.3667 48.7561 14.1969 49.0437C13.3656 50.389 13.8141 52.9156 14.2734 53.8453C14.4922 54.2828 15.1922 54.4578 16.0453 54.4906C13.0915 54.9794 10.1034 55.2318 7.10938 55.2453C4.25469 55.2343 3.82812 52.5 3.82812 50.8593ZM9.84375 64.5312C6.98906 64.5312 6.5625 61.7859 6.5625 60.1562C6.63934 58.9051 7.1321 57.7155 7.9625 56.7765C9.39531 55.825 17.5 55.9234 22.2906 57.5203C21.0875 57.4437 19.8078 57.4218 18.5938 57.4218C18.0247 57.4193 17.4727 57.6158 17.0333 57.9774C16.5939 58.3389 16.2947 58.8427 16.1875 59.4015C16.0297 60.0727 16.1038 60.7775 16.3977 61.4011C16.6917 62.0248 17.1881 62.5305 17.8063 62.8359C18.514 63.0522 19.2554 63.1374 19.9938 63.0875C20.65 63.0875 21.4047 63.0875 22.1813 62.9781C18.1531 64.0263 14.0061 64.5484 9.84375 64.5312ZM30.1547 66.7187L18.3094 64.9687C21.1203 64.5312 23.9312 63.7875 25.4953 62.5406C25.5558 62.4898 25.6044 62.4263 25.6375 62.3547C26.2608 62.1981 26.8603 61.959 27.4203 61.6437C27.6213 61.5186 27.8052 61.3679 27.9672 61.1953L29.0063 64.1593C29.2503 64.79 29.6434 65.3522 30.1519 65.7978C30.6605 66.2435 31.2694 66.5595 31.9266 66.7187H30.1547ZM30.0453 63.7984L25.6703 51.2203C25.7055 51.1032 25.724 50.9816 25.725 50.8593C25.7226 50.6205 25.6662 50.3853 25.5602 50.1713C25.4541 49.9573 25.3011 49.77 25.1125 49.6234L24.5547 48.125H24.675C25.2141 48.1569 25.7532 48.0633 26.25 47.8515C26.3972 47.7789 26.5242 47.671 26.6196 47.5374C26.715 47.4038 26.7759 47.2487 26.7969 47.0859C26.8471 46.4934 26.7761 45.8968 26.588 45.3326C26.4 44.7684 26.0989 44.2485 25.7031 43.8047C25.7031 42.3828 24.6969 40.8734 23.0344 39.5937C24.4372 39.8286 25.8559 39.9566 27.2781 39.9765C27.8746 39.9819 28.4706 39.9417 29.0609 39.8562C29.6054 39.9229 30.1531 39.9594 30.7016 39.9656C31.2317 40.0015 31.763 39.9154 32.2547 39.714C32.4019 39.6414 32.5289 39.5335 32.6243 39.3999C32.7197 39.2663 32.7806 39.1112 32.8016 38.9484C32.8518 38.3559 32.7808 37.7593 32.5927 37.1951C32.4047 36.6309 32.1036 36.111 31.7078 35.6672C31.7116 35.6308 31.7116 35.5941 31.7078 35.5578C31.5961 34.97 31.397 34.4022 31.1172 33.8734L37.3625 31.7187C38.313 31.4014 39.335 31.3658 40.3053 31.6162C41.2757 31.8665 42.1529 32.3921 42.8312 33.1297C42.1984 37.1752 42.7138 41.3172 44.3188 45.0843C45.9034 48.8298 48.3284 52.1605 51.4062 54.8187C51.4053 54.8369 51.4053 54.8552 51.4062 54.8734L52.0188 56.514C52.1483 56.8681 52.2034 57.2451 52.1809 57.6214C52.1583 57.9978 52.0584 58.3655 51.8875 58.7015C51.7174 59.0437 51.4809 59.3486 51.1917 59.5984C50.9025 59.8481 50.5664 60.0378 50.2031 60.1562L33.7313 65.625C32.9998 65.8224 32.2214 65.7457 31.5426 65.4093C30.8637 65.0729 30.3313 64.5 30.0453 63.7984ZM66.7188 66.7187H33.9062H34.0484L50.5203 61.25C51.0209 61.0777 51.482 60.807 51.8765 60.4539C52.2709 60.1007 52.5908 59.6723 52.8172 59.1937C53.2659 58.2679 53.3289 57.2018 52.9922 56.2297C54.1234 57.1052 55.3357 57.8706 56.6125 58.5156C56.6779 58.5458 56.7485 58.5628 56.8204 58.5656C56.8924 58.5685 56.9641 58.5571 57.0317 58.5322C57.0992 58.5074 57.1612 58.4694 57.2141 58.4206C57.2669 58.3717 57.3097 58.313 57.3398 58.2476C57.37 58.1823 57.387 58.1116 57.3899 58.0397C57.3927 57.9678 57.3814 57.896 57.3565 57.8285C57.3316 57.7609 57.2937 57.6989 57.2448 57.6461C57.196 57.5932 57.1372 57.5504 57.0719 57.5203C51.8108 54.6854 47.6746 50.1402 45.3469 44.6359C44.2479 42.1232 43.6806 39.4104 43.6806 36.6679C43.6806 33.9255 44.2479 31.2126 45.3469 28.7C45.4008 28.5985 45.4214 28.4825 45.4057 28.3686C45.39 28.2548 45.3388 28.1487 45.2594 28.0656L37.6031 19.8625C37.5531 19.7887 37.4854 19.7285 37.4062 19.6875C34.3903 18.3008 31.4931 16.6693 28.7438 14.8093C27.7445 14.1212 26.9451 13.181 26.4264 12.0842C25.9078 10.9874 25.6885 9.77297 25.7906 8.56403C26.1612 8.96883 26.5716 9.33527 27.0156 9.65778C28.3808 10.7232 29.9306 11.5278 31.5875 12.0312H31.7188C32.4843 12.0213 33.2303 11.7884 33.8656 11.361C34.5008 10.9336 34.9976 10.3303 35.2953 9.62497L56.4813 21.7328L66.7188 37.8984V66.7187Z" fill="black"/>
<path d="M29.5312 50.3125C29.6204 50.3131 29.7083 50.2919 29.7874 50.2508C29.8665 50.2097 29.9343 50.1499 29.985 50.0766C30.0357 50.0032 30.0676 49.9186 30.0782 49.8301C30.0887 49.7416 30.0774 49.6519 30.0453 49.5687L29.0609 46.9437L31.9375 49.1312C32.0323 49.2042 32.1485 49.2441 32.2682 49.2448C32.3879 49.2454 32.5045 49.2067 32.6001 49.1347C32.6957 49.0627 32.7651 48.9613 32.7975 48.8461C32.8299 48.7309 32.8237 48.6082 32.7797 48.4969L31.139 44.1219C31.1139 44.0543 31.0757 43.9925 31.0267 43.9397C30.9776 43.887 30.9186 43.8444 30.8531 43.8144C30.7876 43.7845 30.7169 43.7677 30.6449 43.7651C30.5729 43.7625 30.5011 43.7741 30.4336 43.7992C30.3661 43.8243 30.3042 43.8625 30.2514 43.9116C30.1987 43.9606 30.1561 44.0196 30.1261 44.0851C30.0962 44.1506 30.0794 44.2214 30.0768 44.2934C30.0742 44.3654 30.0858 44.4372 30.1109 44.5047L31.0953 47.1297L28.2187 44.9422C28.1239 44.8691 28.0077 44.8293 27.888 44.8286C27.7683 44.828 27.6517 44.8667 27.5561 44.9387C27.4605 45.0107 27.3911 45.1121 27.3587 45.2273C27.3263 45.3425 27.3325 45.4652 27.3766 45.5765L29.0172 49.9515C29.0554 50.0572 29.1252 50.1486 29.2172 50.2132C29.3092 50.2778 29.4188 50.3124 29.5312 50.3125ZM33.9062 48.6719H33.9719C34.1152 48.6554 34.2462 48.5829 34.3364 48.4702C34.4265 48.3575 34.4685 48.2138 34.4531 48.0703L34.3219 46.9765L35.4922 46.5828L36.225 47.4359C36.3193 47.5461 36.4535 47.6144 36.5981 47.6257C36.7427 47.637 36.8859 47.5904 36.9961 47.4961C37.1063 47.4018 37.1746 47.2676 37.1859 47.123C37.1971 46.9784 37.1505 46.8352 37.0562 46.725L33.775 42.8969C33.6994 42.8065 33.5966 42.7429 33.4819 42.7157C33.3673 42.6884 33.2469 42.699 33.1387 42.7457C33.0305 42.7924 32.9403 42.8728 32.8815 42.9749C32.8228 43.0771 32.7985 43.1955 32.8125 43.3125L33.3594 48.2344C33.3849 48.3597 33.4537 48.4722 33.5536 48.5521C33.6535 48.6321 33.7783 48.6744 33.9062 48.6719ZM34.7265 45.6312L34.2016 45.8062L34.1031 44.8984L34.7265 45.6312ZM37.7672 46.6812C37.7923 46.7487 37.8305 46.8106 37.8796 46.8634C37.9286 46.9161 37.9876 46.9587 38.0531 46.9887C38.1186 47.0186 38.1894 47.0354 38.2614 47.038C38.3333 47.0406 38.4051 47.029 38.4726 47.0039C38.5401 46.9787 38.602 46.9406 38.6548 46.8915C38.7075 46.8425 38.7501 46.7835 38.7801 46.718C38.81 46.6525 38.8268 46.5817 38.8294 46.5097C38.832 46.4377 38.8204 46.3659 38.7953 46.2984L37.1547 41.9234C37.1295 41.8559 37.0914 41.794 37.0423 41.7413C36.9932 41.6885 36.9343 41.6459 36.8688 41.616C36.8033 41.586 36.7325 41.5693 36.6605 41.5666C36.5885 41.564 36.5167 41.5756 36.4492 41.6008C36.3817 41.6259 36.3198 41.6641 36.2671 41.7131C36.2143 41.7622 36.1717 41.8212 36.1418 41.8867C36.1118 41.9522 36.095 42.0229 36.0924 42.0949C36.0898 42.1669 36.1014 42.2387 36.1265 42.3062L37.7672 46.6812ZM39.375 46.1344C39.4004 46.2022 39.4391 46.2642 39.4887 46.317C39.5384 46.3697 39.598 46.4121 39.6642 46.4416C39.7303 46.4711 39.8016 46.4872 39.874 46.4889C39.9464 46.4906 40.0185 46.4779 40.0859 46.4515L42.8203 45.3578C42.9552 45.3041 43.0632 45.1991 43.1207 45.0658C43.1781 44.9324 43.1802 44.7817 43.1265 44.6469C43.0729 44.512 42.9678 44.4039 42.8345 44.3465C42.7012 44.2891 42.5505 44.2869 42.4156 44.3406L40.2281 45.2265L38.7844 41.3765C38.7336 41.2402 38.6308 41.1296 38.4985 41.0691C38.3662 41.0086 38.2152 41.0031 38.0789 41.0539C37.9426 41.1047 37.832 41.2075 37.7715 41.3398C37.7109 41.4721 37.7055 41.623 37.7562 41.7594L39.375 46.1344ZM43.1594 47.3703C43.1057 47.238 43.0025 47.1319 42.8717 47.0746C42.7409 47.0174 42.5929 47.0136 42.4594 47.064L29.3344 51.9859C29.2666 52.0114 29.2045 52.05 29.1518 52.0997C29.099 52.1493 29.0567 52.2089 29.0272 52.2751C28.9976 52.3412 28.9816 52.4126 28.9799 52.485C28.9781 52.5574 28.9908 52.6294 29.0172 52.6969L30.1109 55.4312C30.1645 55.5635 30.2678 55.6697 30.3986 55.7269C30.5294 55.7841 30.6774 55.7879 30.8109 55.7375L43.9359 50.8156C44.0037 50.7901 44.0658 50.7515 44.1185 50.7018C44.1713 50.6522 44.2136 50.5926 44.2431 50.5264C44.2726 50.4603 44.2887 50.389 44.2904 50.3166C44.2921 50.2442 44.2795 50.1721 44.2531 50.1047L43.1594 47.3703ZM30.9312 54.5344L30.2422 52.8172L42.339 48.2781L43.0281 49.9953L30.9312 54.5344Z" fill="black"/>
</svg>
