<svg width="70" height="70" viewBox="0 0 70 70" fill="none" xmlns="http://www.w3.org/2000/svg">
<path d="M58.5544 60.3017C58.5544 64.6547 55.0213 68.1877 50.6684 68.1877H19.6311C15.2782 68.1877 11.7451 64.6547 11.7451 60.3017V29.2794C11.7451 24.9264 15.2782 21.3934 19.6311 21.3934H50.6534C55.0064 21.3934 58.5395 24.9264 58.5395 29.2794V60.3017H58.5544Z" fill="white"/>
<path d="M50.6686 68.9331H19.6314C14.8759 68.9331 11 65.0572 11 60.3017V29.2794C11 24.5239 14.8759 20.648 19.6314 20.648H50.6537C55.4092 20.648 59.2851 24.5239 59.2851 29.2794V60.3017C59.3 65.0572 55.4241 68.9331 50.6686 68.9331ZM19.6314 22.1388C15.6958 22.1388 12.4907 25.3438 12.4907 29.2794V60.3017C12.4907 64.2373 15.6958 67.4424 19.6314 67.4424H50.6537C54.5893 67.4424 57.7943 64.2373 57.7943 60.3017V29.2794C57.7943 25.3438 54.5893 22.1388 50.6537 22.1388H19.6314Z" fill="#1D1D1B"/>
<path d="M56.1548 28.862V58.7215C56.1548 62.6272 54.4554 65.8025 49.0738 65.8025H21.2268C15.8005 65.8025 14.1458 62.6272 14.1458 58.7215V28.862H56.1548ZM25.6841 21.3934V17.0404C25.6841 13.2539 28.755 10.183 32.5415 10.183H37.7591C41.5456 10.183 44.6165 13.2539 44.6165 17.0404V21.3934H25.6841Z" fill="#00AFFF"/>
<path d="M44.6163 22.1387H25.6838C25.2664 22.1387 24.9385 21.8107 24.9385 21.3933V17.0403C24.9385 12.8514 28.3523 9.43756 32.5413 9.43756H37.7588C41.9478 9.43756 45.3616 12.8514 45.3616 17.0403V21.3933C45.3616 21.8107 45.0337 22.1387 44.6163 22.1387ZM26.4292 20.6479H43.8709V17.0403C43.8709 13.6713 41.1279 10.9283 37.7588 10.9283H32.5413C29.1722 10.9283 26.4292 13.6713 26.4292 17.0403V20.6479Z" fill="#1D1D1B"/>
<path d="M32.8247 7.112H37.3566V10.1829H32.8247V7.112Z" fill="#E6E6E6"/>
<path d="M37.3412 10.9282H32.8093C32.3919 10.9282 32.064 10.6003 32.064 10.1829V7.11195C32.064 6.69454 32.3919 6.36658 32.8093 6.36658H37.3412C37.7586 6.36658 38.0866 6.69454 38.0866 7.11195V10.1829C38.0866 10.5854 37.7586 10.9282 37.3412 10.9282ZM33.5696 9.4375H36.6107V7.85732H33.5696V9.4375Z" fill="#1D1D1B"/>
<path d="M58.5545 4.42876C58.5545 5.90459 57.3619 7.11209 55.8711 7.11209H31.5124C30.0366 7.11209 28.844 5.9195 28.844 4.42876C28.844 2.95292 30.0366 1.74542 31.5124 1.74542H55.8711C57.347 1.76033 58.5545 2.95292 58.5545 4.42876Z" fill="#E6E6E6"/>
<path d="M55.8714 7.85741H31.5127C29.6194 7.85741 28.0989 6.32194 28.0989 4.4287C28.0989 2.53546 29.6343 1 31.5127 1H55.8714C57.7646 1 59.3001 2.53546 59.3001 4.4287C59.3001 6.32194 57.7646 7.85741 55.8714 7.85741ZM31.5127 2.50565C30.4542 2.50565 29.5896 3.37028 29.5896 4.44361C29.5896 5.51694 30.4542 6.38157 31.5127 6.38157H55.8714C56.9298 6.38157 57.8093 5.51694 57.8093 4.44361C57.8093 3.37028 56.9447 2.50565 55.8714 2.50565H31.5127Z" fill="#1D1D1B"/>
<path d="M49.0734 54.0257C49.0734 56.6196 46.9714 58.7215 44.3775 58.7215H25.9222C23.3283 58.7215 21.2263 56.6196 21.2263 54.0257V35.5554C21.2263 32.9615 23.3283 30.8596 25.9222 30.8596H44.3924C46.9863 30.8596 49.0883 32.9615 49.0883 35.5554V54.0257H49.0734Z" fill="white"/>
<path d="M44.3779 59.0941H25.9225C23.1348 59.0941 20.854 56.8133 20.854 54.0256V35.5553C20.854 32.7676 23.1199 30.4868 25.9225 30.4868H44.3928C47.1805 30.4868 49.4613 32.7527 49.4613 35.5553V54.0256C49.4464 56.8282 47.1805 59.0941 44.3779 59.0941ZM25.9225 31.2322C23.5373 31.2322 21.5994 33.1701 21.5994 35.5553V54.0256C21.5994 56.4108 23.5373 58.3488 25.9225 58.3488H44.3928C46.778 58.3488 48.7159 56.4108 48.7159 54.0256V35.5553C48.7159 33.1701 46.778 31.2322 44.3928 31.2322H25.9225Z" fill="#1D1D1B"/>
<path d="M55.8716 7.11209C57.3535 7.11209 58.5549 5.91072 58.5549 4.42876C58.5549 2.94679 57.3535 1.74542 55.8716 1.74542C54.3896 1.74542 53.1882 2.94679 53.1882 4.42876C53.1882 5.91072 54.3896 7.11209 55.8716 7.11209Z" fill="#E6E6E6"/>
<path d="M55.8708 7.85741C53.9776 7.85741 52.4421 6.32194 52.4421 4.4287C52.4421 2.53546 53.9776 1 55.8708 1C57.7641 1 59.2995 2.53546 59.2995 4.4287C59.2995 6.32194 57.7641 7.85741 55.8708 7.85741ZM55.8708 2.50565C54.8124 2.50565 53.9329 3.37028 53.9329 4.44361C53.9329 5.51694 54.7975 6.38157 55.8708 6.38157C56.9442 6.38157 57.8088 5.51694 57.8088 4.44361C57.8088 3.37028 56.9293 2.50565 55.8708 2.50565Z" fill="#1D1D1B"/>
<path d="M38.8624 41.086V35.6895H31.4385V41.086H26.042V48.495H31.4385V53.8915H38.8624V48.495H44.2588V41.086H38.8624Z" fill="#00AFFF"/>
<path d="M38.8621 54.6368H31.4531C31.0357 54.6368 30.7078 54.3088 30.7078 53.8914V49.2403H26.0566C25.6392 49.2403 25.3113 48.9123 25.3113 48.4949V41.0859C25.3113 40.6685 25.6392 40.3406 26.0566 40.3406H30.7078V35.6895C30.7078 35.2721 31.0357 34.9441 31.4531 34.9441H38.8621C39.2795 34.9441 39.6075 35.2721 39.6075 35.6895V40.3406H44.2586C44.676 40.3406 45.004 40.6685 45.004 41.0859V48.4949C45.004 48.9123 44.676 49.2403 44.2586 49.2403H39.6075V53.8914C39.6075 54.3088 39.2646 54.6368 38.8621 54.6368ZM32.1836 53.146H38.1018V48.4949C38.1018 48.0775 38.4298 47.7496 38.8472 47.7496H43.4983V41.8313H38.8472C38.4298 41.8313 38.1018 41.5034 38.1018 41.0859V36.4348H32.1836V41.0859C32.1836 41.5034 31.8556 41.8313 31.4382 41.8313H26.7871V47.7496H31.4382C31.8556 47.7496 32.1836 48.0775 32.1836 48.4949V53.146Z" fill="#1D1D1B"/>
</svg>
