<svg width="70" height="70" viewBox="0 0 70 70" fill="none" xmlns="http://www.w3.org/2000/svg">
<path d="M47.3077 5.22302C56.5591 10.9456 62.7227 21.1834 62.7227 32.8608C62.7227 50.7522 48.1391 65.3357 30.2476 65.3356C26.0725 65.3356 22.0815 64.5477 18.415 63.1125C23.3727 66.1791 29.2171 67.9492 35.4749 67.9492C53.3665 67.9492 67.9501 53.3658 67.9501 35.4745C67.9501 21.7144 59.3917 9.95308 47.3077 5.22302Z" fill="#DFF6FD"/>
<path d="M35.475 7.05927C32.6538 7.05927 29.9288 7.47039 27.3563 8.23593L8.23613 27.356C7.47058 29.9285 7.05945 32.6535 7.05945 35.4746C7.05945 51.1679 19.7815 63.89 35.4751 63.89C51.1687 63.89 63.8907 51.1679 63.8907 35.4746C63.8907 19.7814 51.1685 7.05927 35.475 7.05927Z" fill="#01C0FA"/>
<path d="M37.7328 21.6587L41.2663 28.0035C41.4468 28.3276 41.695 28.6091 41.994 28.8288C42.293 29.0484 42.6358 29.2011 42.9991 29.2765L50.3299 30.7975C52.3296 31.2124 53.0806 33.6738 51.6528 35.1343L46.651 40.2511C46.3783 40.5301 46.1723 40.8672 46.0484 41.2371C45.9246 41.6071 45.8861 42.0003 45.9359 42.3872L46.895 49.8437C47.1589 51.8956 45.0251 53.4102 43.1751 52.4843L36.6317 49.2091C36.2727 49.0294 35.8766 48.9358 35.4751 48.9358C35.0735 48.9358 34.6775 49.0294 34.3184 49.2091L27.775 52.4843C25.9251 53.4102 23.7912 51.8956 24.0551 49.8437L25.0142 42.3872C25.064 42.0003 25.0255 41.6071 24.9016 41.2371C24.7778 40.8672 24.5718 40.5301 24.2991 40.2511L19.2973 35.1343C17.8696 33.6738 18.6205 31.2125 20.6202 30.7975L27.951 29.2765C28.3143 29.2011 28.6571 29.0484 28.9561 28.8288C29.2551 28.6091 29.5033 28.3276 29.6838 28.0035L33.2174 21.6587C34.2026 19.8896 36.7475 19.8896 37.7328 21.6587ZM63.8907 35.4746C63.8907 31.4414 63.0504 27.6045 61.5354 24.1293C62.3092 26.9076 62.7228 29.8359 62.7228 32.8608C62.7228 46.625 54.0915 58.4314 41.9629 63.1459C54.5301 60.211 63.8907 48.936 63.8907 35.4746Z" fill="#08A9F1"/>
<path d="M35.475 3H35.4256C32.7834 3.00392 30.485 4.79401 29.7682 7.33709C26.7133 18.1743 18.1746 26.7129 7.33727 29.7677C4.79403 30.4846 3.00392 32.783 3 35.4252V35.4746C3 35.2471 3.00235 35.0202 3.00706 34.7938C3.05881 32.2792 4.09709 29.8855 5.87557 28.1069L28.1073 5.87554C29.8858 4.09708 32.2795 3.05881 34.7943 3.00706C35.0206 3.00235 35.2475 3 35.475 3Z" fill="#C8EFFE"/>
<path d="M37.7327 19.045L41.2663 25.3898C41.4468 25.7139 41.695 25.9954 41.994 26.2151C42.293 26.4347 42.6358 26.5874 42.9991 26.6628L50.3299 28.1838C52.3296 28.5987 53.0806 31.0601 51.6528 32.5206L46.651 37.6374C46.3783 37.9164 46.1723 38.2535 46.0484 38.6234C45.9246 38.9934 45.8861 39.3866 45.9359 39.7735L46.895 47.23C47.1589 49.2819 45.0251 50.7965 43.1751 49.8706L36.6317 46.5954C36.2727 46.4156 35.8766 46.3221 35.4751 46.3221C35.0735 46.3221 34.6775 46.4156 34.3184 46.5954L27.775 49.8706C25.9251 50.7965 23.7912 49.2819 24.0551 47.23L25.0142 39.7735C25.064 39.3866 25.0255 38.9934 24.9016 38.6234C24.7778 38.2535 24.5718 37.9164 24.2991 37.6374L19.2973 32.5206C17.8696 31.0601 18.6205 28.5988 20.6202 28.1838L27.951 26.6628C28.3143 26.5874 28.6571 26.4347 28.9561 26.2151C29.2551 25.9954 29.5033 25.7139 29.6838 25.3898L33.2174 19.045C34.2026 17.2758 36.7475 17.2758 37.7327 19.045Z" fill="#FED402"/>
<path d="M51.6528 32.5207C53.0805 31.0602 52.3296 28.5989 50.3299 28.1838L45.1744 27.1141C46.1407 28.5641 46.1153 30.6164 44.723 32.0405L41.8748 34.9542C41.4614 35.3771 41.1492 35.888 40.9614 36.4488C40.7737 37.0095 40.7154 37.6054 40.7909 38.1919L41.3484 42.5268C41.6718 45.0422 39.618 47.0249 37.3372 46.9484L43.1751 49.8705C45.025 50.7964 47.1589 49.2818 46.8949 47.2299L45.9358 39.7734C45.886 39.3865 45.9245 38.9933 46.0483 38.6233C46.1722 38.2534 46.3782 37.9163 46.6509 37.6373L51.6528 32.5207Z" fill="#FAC600"/>
<path d="M25.0697 8.913L28.1072 5.87554C29.8856 4.09708 32.2794 3.05881 34.7941 3.00706C35.0206 3.00235 35.2475 3 35.475 3H35.4256C32.7834 3.00392 30.485 4.79401 29.7682 7.33709C26.7133 18.1743 18.1746 26.7129 7.33727 29.7677C4.79403 30.4846 3.00392 32.783 3 35.4252V35.4746C3 35.2471 3.00235 35.0202 3.00706 34.7938C3.05881 32.2792 4.09709 29.8855 5.87557 28.1069L21.7854 12.1973M29.368 49.0732L27.775 49.8706C25.925 50.7965 23.7912 49.2819 24.055 47.2301L25.0141 39.7736C25.0639 39.3866 25.0254 38.9934 24.9016 38.6235C24.7777 38.2535 24.5717 37.9164 24.299 37.6374L19.2972 32.5207C17.8695 31.0602 18.6204 28.5989 20.6201 28.1838L27.951 26.6628C28.3143 26.5875 28.6571 26.4348 28.9561 26.2151C29.255 25.9955 29.5032 25.714 29.6837 25.3899L33.2173 19.0451C34.2025 17.2759 36.7475 17.2759 37.7328 19.0451L41.2664 25.3899C41.4469 25.714 41.6951 25.9955 41.9941 26.2151C42.2931 26.4348 42.6359 26.5875 42.9991 26.6628L50.33 28.1838C52.3297 28.5988 53.0806 31.0602 51.6529 32.5207L46.6511 37.6374C46.3784 37.9164 46.1724 38.2535 46.0485 38.6235C45.9247 38.9934 45.8862 39.3866 45.936 39.7736L46.8951 47.2301C47.1589 49.2819 45.0251 50.7965 43.1752 49.8706L36.6318 46.5955C36.2727 46.4157 35.8767 46.3221 35.4751 46.3221C35.0736 46.3221 34.6775 46.4157 34.3184 46.5955L33.4555 47.0274" stroke="black" stroke-width="2" stroke-miterlimit="10" stroke-linecap="round" stroke-linejoin="round"/>
<path d="M54.4773 14.3474C49.4431 9.81667 42.7811 7.05927 35.4749 7.05927C33.4882 7.05927 31.5493 7.26313 29.6776 7.65113M7.65108 29.6774C7.25648 31.5846 7.05815 33.5271 7.05921 35.4746C7.05921 51.1679 19.7813 63.89 35.4749 63.89C51.1685 63.89 63.8906 51.1679 63.8906 35.4746C63.8906 28.7558 61.5587 22.5817 57.6601 17.7173" stroke="black" stroke-width="2" stroke-miterlimit="10" stroke-linecap="round" stroke-linejoin="round"/>
<path d="M3 35.4746C3 53.4098 17.5395 67.9493 35.4749 67.9493C53.3664 67.9493 67.95 53.3659 67.95 35.4745C67.95 17.5394 53.4103 3 35.475 3" stroke="black" stroke-width="2" stroke-miterlimit="10" stroke-linecap="round" stroke-linejoin="round"/>
</svg>
