<svg width="7" height="7" viewBox="0 0 7 7" fill="none" xmlns="http://www.w3.org/2000/svg">
<mask id="mask0_1084_347" style="mask-type:alpha" maskUnits="userSpaceOnUse" x="0" y="0" width="8" height="7">
<rect x="0.00195312" width="7" height="7" fill="#D9D9D9"/>
</mask>
<g mask="url(#mask0_1084_347)">
<path d="M5.91386 0.191292C6.03482 0.0672398 6.19579 -0.00134136 6.3628 1.98831e-05C6.52981 0.00138113 6.6898 0.0725785 6.80901 0.198588C6.92821 0.324598 6.99731 0.495564 7.00173 0.675411C7.00614 0.855259 6.94553 1.02992 6.83267 1.16254L3.40645 5.77827C3.34754 5.84663 3.27643 5.90148 3.19738 5.93956C3.11834 5.97764 3.03298 5.99815 2.9464 5.99988C2.85983 6.00161 2.77382 5.98451 2.69352 5.94961C2.61322 5.91471 2.54028 5.86273 2.47905 5.79677L0.206932 3.34923C0.143657 3.28572 0.0929062 3.20913 0.0577064 3.12403C0.0225066 3.03893 0.00357908 2.94707 0.00205335 2.85392C0.000527626 2.76077 0.016435 2.66824 0.048826 2.58186C0.0812171 2.49547 0.129428 2.417 0.190584 2.35112C0.25174 2.28525 0.324586 2.23331 0.404779 2.19842C0.484971 2.16353 0.570867 2.14639 0.65734 2.14804C0.743814 2.14968 0.829094 2.17007 0.908094 2.20799C0.987094 2.24591 1.05819 2.30057 1.11715 2.36873L2.91527 4.30475L5.89754 0.211642C5.90291 0.204521 5.90864 0.197726 5.91472 0.191292H5.91386Z" fill="#1E1E1E"/>
</g>
</svg>
