<svg width="27" height="30" viewBox="0 0 27 30" fill="none" xmlns="http://www.w3.org/2000/svg">
<path d="M2.2017 30V0.90909H14.3324C16.5104 0.90909 18.3333 1.21686 19.8011 1.83239C21.2784 2.44792 22.3864 3.30966 23.125 4.41761C23.8731 5.52557 24.2472 6.80871 24.2472 8.26705C24.2472 9.375 24.0152 10.3646 23.5511 11.2358C23.0871 12.0975 22.4479 12.8125 21.6335 13.3807C20.8191 13.9489 19.8769 14.3466 18.8068 14.5739V14.858C19.9811 14.9148 21.0653 15.232 22.0597 15.8097C23.0634 16.3873 23.8684 17.1922 24.4744 18.2244C25.0805 19.2472 25.3835 20.4593 25.3835 21.8608C25.3835 23.4233 24.9858 24.8201 24.1903 26.0511C23.3949 27.2727 22.2443 28.2386 20.7386 28.9489C19.233 29.6496 17.4053 30 15.2557 30H2.2017ZM9.23295 24.3324H13.5795C15.1042 24.3324 16.2263 24.0436 16.946 23.4659C17.6752 22.8883 18.0398 22.0833 18.0398 21.0511C18.0398 20.303 17.8646 19.6591 17.5142 19.1193C17.1638 18.5701 16.6667 18.1487 16.0227 17.8551C15.3788 17.5521 14.607 17.4006 13.7074 17.4006H9.23295V24.3324ZM9.23295 12.8693H13.125C13.892 12.8693 14.5739 12.7415 15.1705 12.4858C15.767 12.2301 16.2311 11.8608 16.5625 11.3778C16.9034 10.8949 17.0739 10.3125 17.0739 9.63068C17.0739 8.6553 16.7282 7.88826 16.0369 7.32955C15.3456 6.77083 14.4129 6.49148 13.2386 6.49148H9.23295V12.8693Z" fill="#E5E342"/>
</svg>
