<svg width="38" height="38" viewBox="0 0 38 38" fill="none" xmlns="http://www.w3.org/2000/svg">
<g clip-path="url(#clip0_1103_2501)">
<path d="M8.4216 22.9638L7.09888 27.9017L2.26434 28.004C0.819524 25.3241 0 22.2581 0 18.9999C0 15.8492 0.766234 12.8781 2.12444 10.262H2.12548L6.42957 11.0511L8.31502 15.3293C7.9204 16.4798 7.70532 17.7148 7.70532 18.9999C7.70546 20.3946 7.95811 21.7309 8.4216 22.9638Z" fill="#FBBB00"/>
<path d="M37.6683 15.4507C37.8865 16.6 38.0003 17.787 38.0003 19.0001C38.0003 20.3604 37.8572 21.6873 37.5848 22.9672C36.6599 27.3226 34.2431 31.1257 30.8952 33.817L30.8941 33.816L25.4729 33.5394L24.7056 28.7496C26.9271 27.4468 28.6633 25.4079 29.5778 22.9672H19.418V15.4507H37.6683Z" fill="#518EF8"/>
<path d="M30.8931 33.8158L30.8941 33.8168C27.6381 36.434 23.5019 37.9999 18.9993 37.9999C11.7637 37.9999 5.47282 33.9557 2.26367 28.0041L8.42093 22.9639C10.0255 27.2461 14.1564 30.2945 18.9993 30.2945C21.0809 30.2945 23.0311 29.7318 24.7045 28.7494L30.8931 33.8158Z" fill="#28B446"/>
<path d="M31.1282 4.37416L24.973 9.41331C23.2411 8.33076 21.1939 7.70539 19.0006 7.70539C14.048 7.70539 9.83982 10.8936 8.31566 15.3294L2.12604 10.2621H2.125C5.28716 4.16538 11.6574 0 19.0006 0C23.6107 0 27.8376 1.64216 31.1282 4.37416Z" fill="#F14336"/>
</g>
<defs>
<clipPath id="clip0_1103_2501">
<rect width="38" height="38" fill="white"/>
</clipPath>
</defs>
</svg>
