<svg width="135" height="31" viewBox="0 0 135 31" fill="none" xmlns="http://www.w3.org/2000/svg">
<circle cx="124" cy="11" r="10.5" stroke="#E5E342"/>
<circle cx="124" cy="11" r="8.5" stroke="#E5E342"/>
<path d="M119.771 16V5.81818H123.977C124.739 5.81818 125.397 5.95573 125.95 6.23082C126.507 6.5026 126.936 6.8937 127.238 7.40412C127.54 7.91122 127.69 8.51278 127.69 9.20881C127.69 9.91477 127.536 10.5147 127.228 11.0085C126.92 11.4991 126.482 11.8736 125.915 12.1321C125.349 12.3873 124.678 12.5149 123.902 12.5149H121.242V10.576H123.445C123.816 10.576 124.126 10.5279 124.374 10.4318C124.626 10.3324 124.817 10.1832 124.946 9.98438C125.075 9.7822 125.14 9.52367 125.14 9.20881C125.14 8.89394 125.075 8.63376 124.946 8.42827C124.817 8.21946 124.626 8.06368 124.374 7.96094C124.122 7.85488 123.813 7.80185 123.445 7.80185H122.232V16H119.771ZM125.503 11.3466L128.038 16H125.354L122.868 11.3466H125.503Z" fill="#E5E342"/>
<path d="M2.2017 30V0.90909H14.3324C16.5104 0.90909 18.3333 1.21686 19.8011 1.83239C21.2784 2.44792 22.3864 3.30966 23.125 4.41761C23.8731 5.52557 24.2472 6.80871 24.2472 8.26705C24.2472 9.375 24.0152 10.3646 23.5511 11.2358C23.0871 12.0975 22.4479 12.8125 21.6335 13.3807C20.8191 13.9489 19.8769 14.3466 18.8068 14.5739V14.858C19.9811 14.9148 21.0653 15.232 22.0597 15.8097C23.0634 16.3873 23.8684 17.1922 24.4744 18.2244C25.0805 19.2472 25.3835 20.4593 25.3835 21.8608C25.3835 23.4233 24.9858 24.8201 24.1903 26.0511C23.3949 27.2727 22.2443 28.2386 20.7386 28.9489C19.233 29.6496 17.4053 30 15.2557 30H2.2017ZM9.23295 24.3324H13.5795C15.1042 24.3324 16.2263 24.0436 16.946 23.4659C17.6752 22.8883 18.0398 22.0833 18.0398 21.0511C18.0398 20.303 17.8646 19.6591 17.5142 19.1193C17.1638 18.5701 16.6667 18.1487 16.0227 17.8551C15.3788 17.5521 14.607 17.4006 13.7074 17.4006H9.23295V24.3324ZM9.23295 12.8693H13.125C13.892 12.8693 14.5739 12.7415 15.1705 12.4858C15.767 12.2301 16.2311 11.8608 16.5625 11.3778C16.9034 10.8949 17.0739 10.3125 17.0739 9.63068C17.0739 8.6553 16.7282 7.88826 16.0369 7.32955C15.3456 6.77083 14.4129 6.49148 13.2386 6.49148H9.23295V12.8693ZM42.8409 20.5824V8.18182H49.7727V30H43.1534V25.9375H42.9261C42.4432 27.2727 41.6193 28.3333 40.4545 29.1193C39.2992 29.8958 37.9025 30.2841 36.2642 30.2841C34.7775 30.2841 33.4706 29.9432 32.3438 29.2614C31.2169 28.5795 30.3409 27.6278 29.7159 26.4062C29.0909 25.1752 28.7737 23.7358 28.7642 22.0881V8.18182H35.7102V20.7244C35.7197 21.9081 36.0322 22.8409 36.6477 23.5227C37.2633 24.2045 38.1013 24.5455 39.1619 24.5455C39.8532 24.5455 40.4735 24.3939 41.0227 24.0909C41.5814 23.7784 42.0218 23.3286 42.3438 22.7415C42.6752 22.1449 42.8409 21.4252 42.8409 20.5824ZM54.1939 30V8.18182H60.9411V12.1591H61.1683C61.5661 10.7197 62.2147 9.64962 63.1143 8.94886C64.014 8.23864 65.0604 7.88352 66.2536 7.88352C66.5755 7.88352 66.907 7.9072 67.2479 7.95455C67.5888 7.99242 67.906 8.05398 68.1996 8.1392V14.1761C67.8681 14.0625 67.4325 13.9725 66.8928 13.9062C66.3625 13.84 65.889 13.8068 65.4723 13.8068C64.6484 13.8068 63.9051 13.9915 63.2422 14.3608C62.5888 14.7206 62.0727 15.2273 61.6939 15.8807C61.3246 16.5246 61.1399 17.2822 61.1399 18.1534V30H54.1939ZM80.0959 30.4119C77.8137 30.4119 75.844 29.9621 74.1868 29.0625C72.5391 28.1534 71.2701 26.8608 70.38 25.1847C69.4993 23.4991 69.0589 21.4962 69.0589 19.1761C69.0589 16.9223 69.504 14.9527 70.3942 13.267C71.2843 11.572 72.5391 10.2557 74.1584 9.31818C75.7777 8.37121 77.6858 7.89773 79.8828 7.89773C81.4358 7.89773 82.8563 8.1392 84.1442 8.62216C85.4321 9.10511 86.5447 9.82008 87.4822 10.767C88.4197 11.714 89.1489 12.8835 89.6697 14.2756C90.1906 15.6581 90.451 17.2443 90.451 19.0341V20.767H71.4879V16.733H83.9879C83.9785 15.9943 83.8033 15.3362 83.4624 14.7585C83.1214 14.1809 82.6527 13.7311 82.0561 13.4091C81.469 13.0777 80.7919 12.9119 80.0249 12.9119C79.2483 12.9119 78.5523 13.0871 77.9368 13.4375C77.3213 13.7784 76.8336 14.2472 76.4737 14.8438C76.1139 15.4309 75.9245 16.0985 75.9055 16.8466V20.9517C75.9055 21.8419 76.0807 22.6231 76.4311 23.2955C76.7815 23.9583 77.2786 24.4744 77.9226 24.8438C78.5665 25.2131 79.3336 25.3977 80.2237 25.3977C80.8393 25.3977 81.398 25.3125 81.8999 25.142C82.4018 24.9716 82.8326 24.7206 83.1925 24.3892C83.5523 24.0578 83.8222 23.6506 84.0021 23.1676L90.38 23.3523C90.1148 24.7822 89.5324 26.0275 88.6328 27.0881C87.7427 28.1392 86.5732 28.9583 85.1243 29.5455C83.6754 30.1231 81.9993 30.4119 80.0959 30.4119ZM106.314 8.18182V13.2955H92.5497V8.18182H106.314ZM95.4332 2.95455H102.379V23.1392C102.379 23.5653 102.446 23.911 102.578 24.1761C102.72 24.4318 102.924 24.6165 103.189 24.7301C103.454 24.8343 103.771 24.8864 104.141 24.8864C104.406 24.8864 104.685 24.8627 104.979 24.8153C105.282 24.7585 105.509 24.7112 105.661 24.6733L106.712 29.6875C106.38 29.7822 105.911 29.9006 105.305 30.0426C104.709 30.1847 103.994 30.2746 103.161 30.3125C101.532 30.3883 100.135 30.1989 98.9702 29.7443C97.8149 29.2803 96.9295 28.5606 96.3139 27.5852C95.7079 26.6098 95.4143 25.3835 95.4332 23.9062V2.95455Z" fill="white"/>
</svg>
