<svg width="81" height="69" viewBox="0 0 81 69" fill="none" xmlns="http://www.w3.org/2000/svg">
<path d="M78.9502 0.686992C78.7773 0.162459 78.212 -0.12262 77.6875 0.0502495C77.1629 0.223119 76.8778 0.788475 77.0507 1.31301L78.9502 0.686992ZM43.937 37.9492L43.2475 38.6735L43.937 37.9492ZM49.8611 33.9547L49.1842 34.6908L49.8611 33.9547ZM0 60.4183L8.07837 68.6689L11.1845 57.5475L0 60.4183ZM77.0507 1.31301C79.7054 9.36794 79.4427 16.0645 77.4993 21.4607C75.5527 26.8657 71.8907 31.0457 67.619 34.0066C63.3415 36.9716 58.4836 38.6913 54.2119 39.1872C49.8805 39.69 46.4011 38.9142 44.6265 37.2249L43.2475 38.6735C45.6691 40.9787 49.9033 41.7008 54.4426 41.1738C59.0417 40.6399 64.2115 38.802 68.7584 35.6504C73.3111 32.4947 77.2702 27.9991 79.381 22.1384C81.4949 16.2688 81.726 9.1094 78.9502 0.686992L77.0507 1.31301ZM44.6265 37.2249C44.2181 36.8362 43.9987 36.2538 44.006 35.5936C44.0133 34.9289 44.2524 34.2701 44.6506 33.8053C45.0321 33.3599 45.5558 33.0895 46.2286 33.1242C46.9308 33.1605 47.9306 33.5382 49.1842 34.6908L50.5379 33.2186C49.0763 31.8746 47.6542 31.1951 46.3317 31.1269C44.9799 31.0571 43.8762 31.6351 43.1317 32.5042C42.4038 33.3539 42.0182 34.4758 42.0061 35.5715C41.994 36.6716 42.3605 37.8292 43.2475 38.6735L44.6265 37.2249ZM49.1842 34.6908C49.6583 35.1267 50.101 35.8929 50.4118 36.9827C50.7186 38.0585 50.8755 39.377 50.8366 40.8278C50.7585 43.7341 49.8979 47.0612 48.0388 49.8817L49.7086 50.9824C51.799 47.8111 52.7491 44.1106 52.8358 40.8816C52.8793 39.2648 52.7072 37.7388 52.3351 36.4342C51.967 35.1437 51.3809 33.9937 50.5379 33.2186L49.1842 34.6908ZM48.0388 49.8817C41.6143 59.6285 27.26 65.6381 8.86725 61.8591L8.46473 63.8182C27.431 67.715 42.7183 61.5877 49.7086 50.9824L48.0388 49.8817Z" fill="url(#paint0_linear_764_165)"/>
<defs>
<linearGradient id="paint0_linear_764_165" x1="-1.61004e-06" y1="63.9135" x2="67.68" y2="14.2188" gradientUnits="userSpaceOnUse">
<stop stop-color="#E5E342"/>
<stop offset="1" stop-color="#1E1E1E"/>
</linearGradient>
</defs>
</svg>
