<svg width="139" height="80" viewBox="0 0 139 80" fill="none" xmlns="http://www.w3.org/2000/svg">
<path d="M0.550726 78.5548C0.465779 78.9602 0.725565 79.3577 1.13097 79.4427C1.53638 79.5276 1.9339 79.2678 2.01884 78.8624L0.550726 78.5548ZM88.5842 25.4562L88.2518 26.1286L88.5842 25.4562ZM138.516 4.89473L130.86 0.84799L131.183 9.50219L138.516 4.89473ZM2.01884 78.8624C6.64383 56.7899 17.1052 38.092 31.9198 27.6789C46.688 17.2984 65.8912 15.0724 88.2518 26.1286L88.9166 24.7839C66.121 13.5126 46.3246 15.7204 31.0572 26.4517C15.8362 37.1505 5.22597 56.2425 0.550726 78.5548L2.01884 78.8624ZM88.2518 26.1286C97.2123 30.5591 103.405 31.8423 107.935 31.0497C112.53 30.2459 115.253 27.3396 117.333 23.8683C118.368 22.1413 119.261 20.2459 120.146 18.3818C121.037 16.5045 121.922 14.6547 122.958 12.9544C125.02 9.57135 127.634 6.86132 131.937 5.87825L131.603 4.41592C126.757 5.52304 123.855 8.60125 121.677 12.1737C120.594 13.9512 119.677 15.8709 118.791 17.7386C117.898 19.6196 117.037 21.4447 116.047 23.0973C114.076 26.3852 111.664 28.8746 107.677 29.5722C103.625 30.281 97.7899 29.1713 88.9166 24.7839L88.2518 26.1286Z" fill="url(#paint0_linear_785_55)"/>
<defs>
<linearGradient id="paint0_linear_785_55" x1="142.5" y1="-7.00001" x2="-4.5" y2="68" gradientUnits="userSpaceOnUse">
<stop stop-color="#E5E342"/>
<stop offset="1" stop-color="#1E1E1E" stop-opacity="0"/>
</linearGradient>
</defs>
</svg>
