<svg width="80" height="110" viewBox="0 0 80 110" fill="none" xmlns="http://www.w3.org/2000/svg">
<mask id="mask0_836_748" style="mask-type:alpha" maskUnits="userSpaceOnUse" x="0" y="0" width="80" height="110">
<rect width="80" height="110" fill="#D9D9D9"/>
</mask>
<g mask="url(#mask0_836_748)">
<path d="M56.2718 23.9171C57.7531 26.8528 58.9651 29.9771 59.0997 33.2629C59.2344 36.5488 58.1302 39.9962 55.6254 42.124C53.5246 43.9015 50.5619 44.5749 47.9225 43.9015C45.2561 43.2282 42.9937 41.2082 41.9972 38.6496C41.3239 36.8989 41.2431 35.0136 41.1353 33.1552C40.9468 28.7651 40.1657 20.8737 43.8556 17.4801C49.5385 12.282 53.9824 19.3654 56.2718 23.9171Z" fill="#DAA869"/>
<path d="M23.3326 -0.861389C26.3491 -0.942188 29.7158 -0.861389 31.8704 1.61646C33.8096 3.82498 34.1597 7.29936 34.3483 10.4505C35.2371 24.9675 35.1563 39.5384 35.0755 54.0823C34.9947 68.4107 34.9408 82.7392 34.86 97.0676C34.86 98.3604 34.8331 99.6801 34.3752 100.838C33.2979 103.585 30.3622 104.366 27.8304 104.77C22.3361 105.686 16.7879 106.548 11.2666 106.198C9.6775 106.09 7.89991 105.767 6.98418 104.259C6.55325 103.532 6.36472 102.67 6.20312 101.781C3.37514 86.1327 4.96419 69.919 4.96419 53.9476C4.96419 38.461 3.45593 22.9475 4.72179 7.54176C5.01806 3.85191 5.90685 -0.134193 9.30043 -0.672856C13.7444 -1.34619 18.7809 -0.753656 23.3326 -0.861389Z" fill="#DFBA9F"/>
<path d="M2.89038 17.4532C-4.5701 23.567 3.48291 39.7269 14.8487 33.4245C17.9191 31.7277 20.774 29.0614 22.0399 25.8024C23.8175 21.1699 21.2049 16.3758 17.3804 14.8137C12.9903 13.0361 7.19969 13.9249 2.89038 17.4532Z" fill="#B36F5B"/>
<path d="M33.0822 81.7965C32.9745 81.7157 32.8129 81.8773 32.9206 81.9581C33.3515 82.4429 33.5939 83.0623 33.7825 83.6549C33.971 84.2743 34.1057 84.9207 34.1326 85.5671C34.2403 86.9407 34.0787 88.3682 33.8633 89.7148C33.7555 90.469 33.5939 91.1962 33.4323 91.9233C33.2707 92.6236 33.0822 93.3239 32.9745 94.0241C32.7321 95.3439 32.8398 96.6905 33.1899 97.9833C33.3785 98.6836 33.6209 99.3838 33.9171 100.057C33.971 100.165 34.0249 100.3 34.0787 100.407C33.9171 100.192 33.7555 99.9764 33.5939 99.7609C32.2742 98.091 30.8467 96.5289 29.3654 94.9937C29.123 94.482 28.9614 93.9164 28.9345 93.3239C28.8806 92.6775 28.9614 92.0311 29.0961 91.4116C29.3923 90.065 30.0657 88.826 30.5505 87.5602C30.8198 86.8868 31.0353 86.2135 31.143 85.5133C31.2507 84.8399 31.2507 84.1397 31.143 83.4394C30.9275 82.0658 30.3081 80.773 29.5001 79.6418C28.9614 78.8877 28.315 78.2144 27.6417 77.5949C26.9414 76.9485 26.2142 76.356 25.4601 75.8173C25.3524 75.7634 25.2446 75.8712 25.3254 75.952C25.7294 76.4368 25.9988 77.0562 26.2142 77.6488C26.4297 78.2413 26.5913 78.8608 26.699 79.4802C26.9414 80.7461 26.9414 82.0389 26.9414 83.3317C26.8876 85.9711 26.6182 88.6375 27.2108 91.2231C27.3724 91.9233 27.5878 92.5967 27.911 93.2431C27.938 93.2969 27.9649 93.3239 27.9918 93.3508C27.938 93.3508 27.911 93.3508 27.8572 93.3508C27.3454 92.8391 26.8337 92.3273 26.322 91.8156C26.322 91.7887 26.322 91.7887 26.295 91.7617C26.2142 91.654 26.1604 91.5463 26.0796 91.4386C26.1065 91.4116 26.1334 91.3577 26.1065 91.3308C26.0257 91.25 25.9718 91.1962 25.891 91.1154C25.6217 90.6036 25.3793 90.0919 25.1908 89.5532C24.8945 88.7991 24.679 88.018 24.4905 87.237C24.1134 85.621 23.898 83.9511 23.5748 82.3082C23.2516 80.6383 22.7937 79.0224 22.0396 77.4872C21.2855 75.8981 20.2889 74.4437 19.0769 73.1509C18.4036 72.4507 17.7034 71.7773 16.9223 71.1848C16.1412 70.5923 15.3063 70.0267 14.3906 69.6496C14.2559 69.5957 14.1751 69.7574 14.2828 69.8382C14.8754 70.3499 15.3332 71.0232 15.7642 71.6965C16.1682 72.3429 16.5183 73.0432 16.8415 73.7435C17.4879 75.1979 17.9727 76.7061 18.4306 78.2144C18.8884 79.7496 19.3732 81.3117 19.9927 82.793C20.6391 84.3013 21.4201 85.7826 22.3359 87.1562C22.8476 87.9372 23.4132 88.6914 24.0326 89.4186C24.3289 89.7687 24.6252 90.1188 24.9484 90.4151C25.11 90.5767 25.2716 90.7114 25.4332 90.873C25.4332 90.8999 25.4601 90.9268 25.4601 90.9268C25.0022 90.469 24.5444 90.0111 24.0596 89.5532C23.5209 89.0146 22.9553 88.4759 22.4167 87.9372C22.4436 87.8834 22.4436 87.8295 22.3628 87.7756C22.282 87.7487 22.2281 87.6948 22.1473 87.6679C21.1239 86.6714 20.1004 85.6479 19.0769 84.6245C18.646 84.1935 18.2151 83.7357 17.7572 83.3047C17.7034 83.2509 17.6764 83.197 17.6226 83.1431C17.4879 82.9815 17.3532 82.8199 17.2455 82.6314C17.03 82.2813 16.7876 81.9581 16.5722 81.6079C16.1412 80.9077 15.7911 80.1805 15.441 79.4533C14.7676 77.945 14.2559 76.356 13.7442 74.7669C12.7207 71.5888 11.6703 68.303 9.40794 65.7443C7.95355 64.0745 6.12209 62.7817 4.31757 61.5427C4.18291 61.4619 4.02131 61.5966 4.12904 61.7313C5.01784 62.9433 5.61036 64.3707 6.17596 65.7712C6.74156 67.1718 7.22635 68.5992 7.84582 69.9728C9.08474 72.8277 10.8085 75.4672 12.6938 77.9181C13.1786 78.5645 13.7172 79.184 14.229 79.8034C14.7138 80.4498 15.1986 81.0693 15.7372 81.6618C16.4914 82.5237 17.2455 83.4125 18.0266 84.2474C18.8615 85.1631 19.7233 86.025 20.6121 86.8868C19.6156 86.3482 18.6191 85.8095 17.6495 85.2709C16.1143 84.409 14.606 83.4663 13.1517 82.4698C11.6973 81.4733 10.2967 80.4229 8.95008 79.2917C7.73808 78.2682 6.60689 77.137 5.36797 76.1405C4.07517 75.0901 2.64772 74.1475 1.00479 73.8243C0.870128 73.7973 0.789328 73.9859 0.870128 74.0667C2.40532 75.7634 3.80584 77.5949 5.0717 79.5072C5.7181 80.4767 6.31063 81.4463 6.87622 82.4698C7.41489 83.4125 7.87275 84.3821 8.49221 85.2709C9.05781 86.0519 9.75807 86.7522 10.6469 87.1292C11.2933 87.3986 11.9935 87.5063 12.6938 87.5063C14.202 87.5063 15.6564 87.1023 17.1378 86.9407C17.865 86.8599 18.5921 86.833 19.3193 86.9676C20.2351 87.1292 21.0431 87.5871 21.8511 88.0719C22.2281 88.422 22.5783 88.7722 22.9553 89.1223C23.7902 89.9034 24.6521 90.6844 25.487 91.4655C26.1065 92.058 26.726 92.6505 27.3454 93.2431C25.9718 92.866 24.6252 92.4889 23.2247 92.1657C21.7972 91.8425 20.3697 91.6271 18.9153 91.6001C17.5687 91.5732 16.1951 91.6271 14.8484 91.5193C14.1482 91.4655 13.4748 91.3308 12.8015 91.1423C12.1013 90.9268 11.401 90.6575 10.7277 90.3612C9.9466 90.0111 9.16554 89.661 8.41141 89.257C7.65729 88.853 6.90316 88.422 6.17596 87.9642C6.06823 87.9103 5.93356 87.9911 5.98743 88.0988C6.36449 88.9338 6.74156 89.7956 7.22635 90.5767C7.71115 91.3577 8.24981 92.0849 8.81541 92.7852C9.8658 94.1049 11.1317 95.2631 12.7477 95.7748C15.845 96.7713 19.0769 95.7209 22.0665 94.7783C23.9249 94.1857 25.8372 93.6201 27.8033 93.6471C27.8841 93.7279 27.938 93.7817 28.0188 93.8625C29.6617 95.5055 31.2507 97.2023 32.7051 98.9798C32.9206 99.2492 33.1091 99.4916 33.3246 99.7609C33.2707 99.734 33.2169 99.734 33.163 99.707C32.2203 99.1414 31.1699 98.7105 30.0926 98.4142C28.5844 98.0102 27.0222 97.9564 25.487 98.0372C22.4705 98.2257 19.4809 98.899 16.4375 98.6566C15.6295 98.6028 14.8215 98.4681 14.0404 98.2526C13.2594 98.0372 12.5053 97.7409 11.805 97.3369C11.6973 97.2561 11.5357 97.3908 11.6434 97.4985C11.9127 97.8486 12.1551 98.2526 12.3975 98.6028C12.6669 98.9798 12.9362 99.33 13.2055 99.6801C13.7711 100.353 14.3906 101 15.1178 101.485C16.4106 102.4 17.9727 102.75 19.5348 102.697C22.6591 102.589 25.4601 101.027 28.4497 100.273C30.0657 99.8686 31.7625 99.707 33.3515 100.165C33.5131 100.273 33.6747 100.353 33.8363 100.461C34.0518 100.757 34.2403 101.027 34.4288 101.35C34.4288 101.377 34.4288 101.404 34.4019 101.431C34.375 101.592 34.5096 101.673 34.6174 101.7C35.156 102.562 35.587 103.478 35.8832 104.474C35.964 104.717 36.0179 104.986 36.0718 105.228C36.1256 105.525 36.5835 105.444 36.5296 105.174C36.2603 103.801 35.6408 102.562 34.8867 101.404C35.0483 100.704 35.2907 100.057 35.56 99.3838C35.8294 98.7374 36.0718 98.091 36.2872 97.4446C36.7182 96.1519 37.0414 94.8052 37.203 93.4316C37.5531 90.6575 37.203 87.7756 35.964 85.2439C35.3176 84.0319 34.348 82.793 33.0822 81.7965Z" fill="#F2EBE1"/>
<path d="M46.3612 80.1266L47.4654 81.581L46.442 83.0623L45.23 81.608L46.3612 80.1266Z" fill="white"/>
<path d="M62.6278 43.8746L63.732 45.329L62.7086 46.8373L61.4966 45.3559L62.6278 43.8746Z" fill="white"/>
<path d="M40.408 48.13L41.5123 49.6114L40.4888 51.0927L39.2769 49.6383L40.408 48.13Z" fill="white"/>
<path d="M56.2449 36.0101C56.1102 35.8755 55.8947 36.0909 56.0294 36.2256C56.4873 36.6565 56.2449 37.4645 55.7062 37.7608C54.979 38.1648 54.0902 37.7069 53.5516 37.1952C52.555 36.2525 52.2318 34.8251 52.178 33.4784C52.0702 30.7582 53.2014 27.7416 51.8817 25.183C51.5854 24.5905 51.1276 24.1057 50.6158 23.6747C50.1311 23.2707 49.5924 22.9206 49.1076 22.4627C48.5689 21.951 48.2188 21.3316 48.1649 20.5505C48.1111 19.7425 48.2457 18.9345 48.0303 18.1265C47.1684 14.9215 43.4247 14.0327 40.5967 13.6825C38.7922 13.4401 36.9877 13.4132 35.1831 13.5748C33.5133 13.7364 31.8165 14.1943 30.1197 13.9249C29.7426 13.8711 29.3925 13.7633 29.0424 13.6287C29.0963 13.5479 29.1501 13.4671 29.204 13.3863C30.3621 13.1439 31.5472 12.8745 32.7053 12.5513C32.813 12.5244 32.8669 12.3359 32.7322 12.282C31.4664 11.7164 29.9312 12.0935 29.0424 13.1169C27.6688 13.4132 26.2683 13.6556 24.8677 13.8711C26.6992 12.282 29.204 11.5548 31.5472 11.1239C33.9173 10.693 36.4221 10.6391 38.7383 11.3124C40.0311 11.6895 41.2431 12.3089 42.2666 13.1977C42.3743 13.2785 42.5628 13.1977 42.509 13.0631C41.4855 9.83109 38.2805 7.9727 35.3447 6.67991C33.5941 5.92578 31.7626 5.36019 29.8504 5.62952C28.1805 5.87192 26.6723 6.62604 25.2448 7.46097C23.7096 8.3767 22.2283 9.42709 20.6123 10.2351C21.959 8.10737 24.3021 6.86844 26.5645 5.95271C27.2648 5.65645 27.992 5.41405 28.6923 5.14472C28.8269 5.09085 28.8539 4.90232 28.6923 4.87539C24.5984 4.01353 20.1275 5.54872 17.3803 8.72683C17.0302 9.13083 16.707 9.53483 16.4377 9.99269C16.1414 10.4506 15.8451 10.9892 16.0337 11.5279C16.1953 11.9857 16.6262 12.2281 17.0571 12.4436C17.5689 12.686 18.0806 12.9284 18.5654 13.2247C19.535 13.7903 20.4507 14.5444 21.0432 15.514C21.6627 16.5644 21.8243 17.8302 21.6088 19.0153C21.3934 20.2542 20.9086 21.4124 20.2622 22.4627C19.6696 23.4862 18.9694 24.4558 18.1614 25.3446C16.6801 27.0145 14.7409 28.4688 12.5054 28.8998C12.3708 28.9267 12.263 28.9536 12.1284 28.9536C11.2665 28.3342 10.5932 27.4992 10.0545 26.6105C9.38118 25.5331 8.81558 24.3481 8.54625 23.0822C8.27692 21.8702 8.33078 20.6044 8.89638 19.5001C9.38118 18.5574 10.1892 17.7494 11.2396 17.4801C12.5324 17.1569 13.8251 17.7494 15.1179 17.7225C16.0337 17.7225 17.0571 17.4262 17.5689 16.6182C18.1345 15.7295 17.7574 14.5175 17.1649 13.7364C16.6262 13.0361 15.8721 12.5244 15.0371 12.2281C13.2057 11.5817 11.2126 11.9857 9.65051 13.1169C7.92679 14.4636 6.71479 16.5105 5.826 18.5574C4.88334 20.7121 4.18308 23.2977 5.07187 25.587C5.79907 27.4723 7.49586 28.7112 9.43504 29.1422C10.3238 29.3576 11.2396 29.3846 12.1284 29.2499C12.667 29.627 13.2596 29.9232 13.9059 30.0579C14.9563 30.3003 16.0337 30.1656 17.0302 29.7886C19.1848 28.9536 20.6123 27.0414 21.3395 24.9137C21.528 24.3211 21.6896 23.7286 21.7974 23.1361C21.9051 22.5974 21.9051 22.0049 22.0667 21.4662C22.1475 21.1969 22.2822 20.9276 22.5784 20.8737C22.8747 20.8198 23.1979 20.9545 23.4672 21.0622C23.6827 21.143 23.9251 21.2238 24.1406 21.3316C26.78 22.4897 28.9885 24.4019 30.9277 26.5027C32.7322 28.4419 34.3752 30.5427 36.1527 32.5088C36.5837 32.9936 37.0415 33.4515 37.4994 33.9093C37.8765 34.2864 38.3343 34.8789 38.873 34.9328C39.277 34.9867 39.5733 34.7173 39.6541 34.3403C39.7618 33.8824 39.6002 33.4245 39.4386 32.9936L38.1458 29.6808C39.0346 30.5696 39.9234 31.4584 40.8122 32.3203C41.297 32.8051 41.7548 33.2899 42.2666 33.7208C42.6706 34.0709 43.1823 34.3941 43.7479 34.3403C44.7444 34.2595 45.0407 33.1552 45.0946 32.3203C45.1484 31.0814 44.906 29.8155 44.4482 28.6843C42.6436 24.1057 37.6341 22.3011 33.4594 20.4966C30.82 19.3654 28.1805 18.2342 25.5141 17.0761C28.2613 17.534 31.0354 18.0188 33.7826 18.4766C35.3447 18.746 36.9069 19.0153 38.469 19.2846C39.8695 19.527 41.297 19.7156 42.6706 20.0388C43.317 20.2004 44.0172 20.4158 44.6098 20.739C44.6367 21.5201 44.7983 22.2742 45.0138 23.0283C45.6063 25.1291 46.6836 27.0953 46.9529 29.2768C47.0876 30.2464 47.0337 31.2699 46.7375 32.2395C46.4412 33.1283 45.4986 34.2325 44.7175 34.7173C43.0476 35.7677 41.0276 35.9832 39.1154 36.3603C37.1493 36.7643 35.237 37.4645 33.5133 38.488C32.6514 38.9997 31.8434 39.5653 31.0893 40.2117C30.3621 40.8312 29.581 41.5045 29.1232 42.3394C28.9077 42.7434 28.7731 43.1744 28.7731 43.6322C28.7731 43.713 28.8269 43.7669 28.9077 43.7669C29.204 44.5749 29.7426 45.2751 30.012 46.1101C30.1466 46.5679 30.1736 47.0258 29.9312 47.4567C29.6888 47.8877 29.2848 48.157 28.8269 48.3186C27.6957 48.7226 26.4029 48.2647 25.2717 47.9954C24.1406 47.7261 23.0094 47.4298 21.8512 47.1874C19.7504 46.7565 17.5689 46.4871 15.4411 46.8373C13.502 47.1605 11.6436 47.9685 10.2969 49.4228C7.19959 52.7626 7.52279 57.6913 7.76519 61.8929C8.06145 66.8217 8.43852 71.7774 8.70785 76.7061C8.97718 81.6349 9.16571 86.5367 9.08491 91.4655C9.08491 92.085 9.05798 92.6775 9.03105 93.297C9.03105 93.4855 9.30038 93.4855 9.32731 93.297C9.46198 88.3413 9.32731 83.3856 9.08491 78.4299C8.81558 73.4742 8.46545 68.5185 8.14225 63.5628C7.98065 61.1388 7.76519 58.6879 7.95372 56.2639C8.11532 54.1631 8.65398 52.0354 9.91984 50.3116C11.1318 48.6418 12.9633 47.6453 14.9563 47.2143C17.111 46.7565 19.3464 46.9719 21.5011 47.4029C22.6862 47.6453 23.8443 47.9415 25.0024 48.2378C26.0797 48.5071 27.2379 48.8842 28.3691 48.7226C29.2309 48.6149 30.0928 48.0762 30.3352 47.1874C30.5776 46.3255 30.0928 45.4906 29.6888 44.7634C29.4733 44.3325 29.2309 43.9285 29.0963 43.4706C29.0963 43.4437 29.0963 43.4437 29.0693 43.4167C29.1501 42.5549 29.7696 41.8277 30.389 41.2352C31.0624 40.5618 31.8165 39.9424 32.6245 39.4037C34.2136 38.3264 35.9642 37.4915 37.7957 36.9797C39.7618 36.4141 41.8895 36.3333 43.7748 35.5523C44.5828 35.2291 45.337 34.7443 45.9564 34.1248C46.5759 33.4784 46.9799 32.6435 47.1684 31.7547C48.0033 27.9302 45.1754 24.6443 44.906 20.9545C45.0676 21.0622 45.2292 21.1969 45.3639 21.3316C45.6601 21.6009 45.8487 21.951 45.9564 22.3281C46.5759 24.3211 47.2761 26.2603 48.0572 28.1995C48.1649 28.4688 48.2727 28.7651 48.4073 29.0344C48.4881 29.2499 48.5689 29.4654 48.7036 29.627C48.9191 29.9232 49.2692 30.1387 49.6463 29.9771C49.9964 29.8155 50.158 29.4115 50.2119 29.0614C50.2927 28.5496 50.2119 28.0379 50.0503 27.5531C49.7271 26.5297 49.1615 25.587 48.7575 24.5905C48.3265 23.567 47.9764 22.5166 47.7071 21.4393C47.4377 20.362 47.2492 19.2846 47.0876 18.2073C47.0337 17.8302 46.926 17.4262 46.6028 17.1838C46.2527 16.9414 45.8487 17.0492 45.5524 17.2916C45.2023 17.5878 45.0138 18.0457 44.8791 18.4766C44.7175 18.9614 44.6367 19.4732 44.6098 19.958C44.6098 20.1196 44.6098 20.2812 44.6098 20.4158C44.2596 20.2273 43.8556 20.0657 43.4786 19.958C42.1858 19.554 40.7852 19.3924 39.4655 19.1769C36.2874 18.6382 33.0824 18.0996 29.9042 17.5609C28.0728 17.2377 26.2413 16.9414 24.4368 16.6182C24.3021 16.5913 24.1675 16.8068 24.3291 16.8876C26.8608 17.9649 29.3925 19.0692 31.9242 20.1465C34.1058 21.0892 36.3413 21.951 38.4421 23.0822C40.3543 24.1057 42.1858 25.3985 43.3978 27.2299C44.0442 28.2264 44.502 29.3576 44.6906 30.5427C44.7983 31.1352 44.8521 31.7547 44.8252 32.3472C44.7983 32.8051 44.7175 33.2899 44.4751 33.6669C43.5324 35.0136 41.8626 32.9397 41.2162 32.2934C40.1119 31.216 39.0346 30.1118 37.9303 29.0344C37.8495 28.9536 37.6341 29.0344 37.6879 29.1691C38.2266 30.5427 38.7922 31.9163 39.3039 33.2899C39.4386 33.64 39.6271 34.2595 39.3039 34.5827C39.0346 34.8251 38.6845 34.6096 38.469 34.4211C38.2266 34.2056 37.9842 33.9632 37.7418 33.7477C35.8565 31.8624 34.1866 29.7347 32.436 27.7416C30.82 25.8833 29.0693 24.0787 27.0224 22.6513C26.0528 21.978 25.0024 21.3854 23.8982 20.9545C23.4134 20.766 22.7939 20.4697 22.2822 20.739C21.8512 20.9814 21.7704 21.5201 21.6896 21.951C21.3664 24.3211 20.6662 26.7721 18.8078 28.415C17.0841 29.9232 14.5523 30.4888 12.5324 29.223C13.5289 29.0344 14.4715 28.6843 15.3603 28.1726C17.3265 27.0414 18.8616 25.2907 20.1006 23.4054C21.3664 21.4932 22.4707 19.0422 21.8782 16.699C21.6088 15.5948 20.9355 14.6521 20.0736 13.9249C19.2118 13.1977 18.2422 12.7129 17.2457 12.2281C16.707 11.9588 16.1414 11.5817 16.3569 10.8815C16.5185 10.3428 16.9494 9.80416 17.2995 9.34629C17.9459 8.51137 18.727 7.78417 19.5888 7.16471C21.3395 5.92578 23.4134 5.14472 25.568 4.98312C26.4299 4.92925 27.2917 4.95619 28.1267 5.09085C25.7296 5.95272 23.2787 6.92231 21.4742 8.75376C20.9355 9.29243 20.5046 9.88496 20.1275 10.5314C20.0467 10.666 20.2083 10.7738 20.316 10.7199C21.8243 9.99269 23.2248 9.05003 24.6253 8.18817C25.9989 7.32631 27.4264 6.49138 29.0155 6.08738C29.8504 5.87192 30.6853 5.79112 31.5472 5.87192C32.5437 5.95271 33.5133 6.24898 34.429 6.59911C35.9911 7.21857 37.5533 7.99964 38.9269 8.96923C40.2735 9.91189 41.4316 11.1508 42.0511 12.6591C38.1727 9.69642 32.5706 10.1543 28.2075 11.7164C26.78 12.2281 25.4333 12.9284 24.3291 13.9788C24.2214 14.0865 24.3291 14.2481 24.4637 14.2212C25.9181 14.0057 27.3456 13.7633 28.7731 13.4671C28.7461 13.5209 28.7192 13.5748 28.6923 13.6287C28.6653 13.6825 28.6653 13.7903 28.7461 13.8172C30.3082 14.5175 32.032 14.2751 33.648 14.0327C35.5333 13.7633 37.4186 13.6825 39.3039 13.8172C41.0815 13.9519 42.9668 14.2212 44.6098 14.9484C46.0372 15.5679 47.3569 16.699 47.7609 18.2881C47.9764 19.15 47.7879 20.0118 47.8956 20.8737C48.0033 21.5739 48.3535 22.1395 48.8383 22.6243C49.3231 23.0822 49.8887 23.4593 50.4004 23.8902C50.966 24.3481 51.4238 24.8867 51.7201 25.5331C52.3396 26.9067 52.2588 28.5227 52.1241 30.004C51.9894 31.4584 51.774 32.8859 51.9625 34.3403C52.1241 35.66 52.6628 37.0067 53.794 37.7608C54.3596 38.1378 55.0868 38.3264 55.7332 38.057C56.0294 37.9224 56.2718 37.68 56.4065 37.4107C56.6758 36.8451 56.595 36.3333 56.2449 36.0101ZM44.8791 20.0657C44.906 19.554 44.9868 19.0692 45.1484 18.5844C45.2831 18.1534 45.4716 17.6686 45.8756 17.4532C46.3065 17.2108 46.6028 17.5878 46.7105 17.9649C46.8183 18.3958 46.8452 18.8806 46.926 19.3385C47.2761 21.4124 47.8956 23.4323 48.7305 25.3446C49.1615 26.2873 49.7271 27.203 49.8887 28.2534C49.9425 28.6843 49.9695 29.223 49.7001 29.5731C49.5924 29.7078 49.4308 29.7886 49.2692 29.7616C49.0537 29.7078 48.9191 29.4923 48.8383 29.3307C48.5959 28.8728 48.4073 28.3611 48.2188 27.8763C48.0033 27.3646 47.8148 26.8529 47.6263 26.3411C47.2492 25.3177 46.8721 24.2673 46.522 23.2169C46.3065 22.5974 46.1449 21.8702 45.9564 21.6009C45.6601 21.2238 45.2831 20.9006 44.8791 20.6582C44.8791 20.4428 44.8791 20.2542 44.8791 20.0657ZM6.90333 27.6608C6.04146 26.9606 5.44893 26.0449 5.1796 24.9675C4.85641 23.7555 4.9372 22.4897 5.23347 21.3046C5.5028 20.0926 5.96066 18.9345 6.49933 17.8302C7.01106 16.8068 7.57665 15.8103 8.30385 14.9215C9.03105 14.0327 9.89291 13.2785 10.9164 12.7937C11.7782 12.3628 12.7478 12.2012 13.7174 12.282C14.6331 12.3628 15.5489 12.6591 16.303 13.2247C17.0841 13.8172 17.7305 14.8407 17.6227 15.8641C17.4881 17.0222 16.2761 17.4532 15.2795 17.4801C13.9867 17.507 12.7478 16.9684 11.4281 17.2108C9.27344 17.5878 8.11532 19.9041 8.16918 21.8972C8.22305 23.163 8.62705 24.4019 9.19264 25.5331C9.70437 26.5566 10.2969 27.5531 11.1049 28.388C11.3204 28.6304 11.5628 28.8459 11.8052 29.0344C10.0814 29.196 8.24998 28.7382 6.90333 27.6608ZM32.1666 12.3897C31.3048 12.6052 30.4429 12.8207 29.5811 13.0092C30.2813 12.4167 31.2778 12.1743 32.1666 12.3897Z" fill="#643623"/>
<path d="M79.9464 77.541C79.7579 74.2013 79.0038 70.8886 77.4147 67.9259C76.6606 66.5254 75.7179 65.2326 74.3443 64.3438C73.0246 63.4819 71.4894 63.0241 69.9812 62.647C69.7118 62.5662 69.4156 62.5123 69.1193 62.4585C69.254 61.4619 69.7388 60.5462 69.8196 59.5497C69.9004 58.3646 69.1462 57.395 68.5537 56.4524C67.9881 55.5097 67.4225 54.5132 66.5876 53.786C65.8335 53.1127 64.8639 52.8433 63.8943 52.6548C62.8169 52.4393 61.6588 52.2777 60.7431 51.6313C60.7162 51.6044 60.6892 51.6044 60.6623 51.6044C59.2348 50.581 57.8074 49.5575 56.3799 48.561C55.6527 48.0223 54.8986 47.5106 54.2253 46.918C53.5519 46.3524 52.9863 45.706 52.4207 45.0327C52.0706 44.6018 51.7205 44.1439 51.3704 43.713C51.3704 43.6861 51.3704 43.6861 51.3704 43.6591C51.3973 43.6591 51.4512 43.6591 51.4781 43.6322C52.4207 42.9858 52.4477 41.7199 52.4207 40.6965C52.3669 39.1613 52.2591 37.653 52.0975 36.1448C51.7474 33.1283 51.1818 30.1387 50.3738 27.2299C49.9429 25.7216 49.4042 24.2134 48.5424 22.8937C48.4346 22.7321 48.1922 22.8667 48.3 23.0283C49.0541 24.1864 49.5389 25.4792 49.9429 26.772C50.3469 28.1456 50.697 29.5461 50.9933 30.9467C51.5858 33.8555 51.9629 36.7912 52.1245 39.7538C52.1514 40.4541 52.2053 41.1813 52.1245 41.8815C52.0706 42.4202 51.8821 42.9589 51.4781 43.309C51.4512 43.2551 51.4242 43.1743 51.3973 43.1205C51.3973 41.2351 51.128 39.3768 50.6162 37.5453C50.4816 37.0874 50.3738 36.4949 49.889 36.2794C49.8082 36.2256 49.6736 36.2794 49.6736 36.4141C49.7544 38.7304 50.2392 41.0197 51.101 43.1743C51.101 43.2282 51.101 43.309 51.101 43.3629C50.4277 42.4741 49.7544 41.5853 49.081 40.7234C48.5424 40.0231 47.9768 39.3229 47.465 38.5688C47.2226 38.1917 46.9533 37.8146 46.7917 37.3837C46.6301 36.9258 46.7379 36.5218 46.8725 36.0909C47.0072 35.6061 47.1418 35.1482 47.2765 34.6634C47.3573 34.5557 47.465 34.448 47.5458 34.3403C48.3 33.3437 48.7848 32.1048 48.7578 30.8389C48.7578 30.5157 48.704 30.2195 48.6232 29.9232C48.5962 29.7885 48.3808 29.7885 48.3538 29.9232C47.9229 31.4584 47.465 32.9936 47.0341 34.5288C46.4147 35.229 45.6875 35.7677 44.8525 36.1986C42.2939 37.5453 39.3582 37.7338 36.611 38.461C35.2374 38.8381 33.9446 39.3498 32.7326 40.104C32.167 40.4541 31.6014 40.8581 31.0897 41.289C30.6049 41.693 30.147 42.1509 29.6353 42.5549C29.1236 42.9319 28.558 43.2821 27.9116 43.309C27.1574 43.3359 26.4841 43.0127 25.8108 42.6895C25.2183 42.4202 24.5988 42.097 24.0871 41.6661C23.7639 41.3698 23.4945 41.0197 23.306 40.6426C23.4407 40.3194 23.4676 39.9962 23.4945 39.6461C23.5215 39.1074 23.5484 38.5688 23.5484 38.0301C23.5484 36.9797 23.4676 35.9562 23.306 34.9328C23.1175 33.7747 22.8481 32.6165 22.4711 31.4853C22.2556 30.812 21.9055 29.3846 20.9089 29.5462C20.8551 29.5462 20.8281 29.6 20.8012 29.6539C20.478 31.216 20.9089 32.8589 21.2321 34.3941C21.5823 35.9832 21.9863 37.5722 22.4441 39.1344C22.6057 39.6461 22.7673 40.1578 22.9828 40.6426C22.9559 40.6965 22.9289 40.7503 22.8751 40.8042C22.6865 40.9927 22.4441 40.9119 22.2287 40.8311C21.7439 40.6426 21.286 40.4271 20.8012 40.2117C19.8316 39.7808 18.862 39.3768 17.8924 38.9458C17.4346 38.7304 16.9498 38.5418 16.4919 38.3264C16.1148 38.1648 15.7378 38.0032 15.3876 37.7608C14.7413 37.3029 14.4181 36.6296 14.3373 35.8485C14.2026 34.2864 14.849 32.5627 14.0141 31.1352C13.9333 30.9736 13.6639 31.1083 13.7717 31.2699C14.6066 32.6973 13.9063 34.448 14.0949 36.0101C14.1757 36.7642 14.5258 37.4376 15.1453 37.9224C15.4954 38.1917 15.9263 38.3802 16.3303 38.5688C16.842 38.7842 17.3538 38.9997 17.8655 39.2421L21.0436 40.6157C21.3129 40.7234 21.5553 40.8311 21.8247 40.9389C22.0401 41.0466 22.2825 41.1813 22.5249 41.2082C22.7943 41.2351 23.0097 41.1274 23.1713 40.9389C23.1983 40.9927 23.2252 41.0197 23.2521 41.0735C23.6023 41.6661 24.114 42.097 24.7065 42.4471C25.2991 42.7973 25.9454 43.0935 26.5918 43.3359C27.2382 43.5783 27.9116 43.6861 28.5849 43.4975C29.8508 43.0935 30.7396 41.9623 31.7361 41.1813C32.9211 40.2656 34.2678 39.5653 35.6683 39.0805C38.5232 38.1109 41.6206 38.0301 44.3947 36.7642C45.3104 36.3602 46.1723 35.8216 46.8994 35.1213C46.8725 35.256 46.8186 35.3906 46.7917 35.5253C46.684 35.9293 46.5224 36.3602 46.4685 36.7912C46.4416 37.1952 46.6032 37.5992 46.7917 37.9493C47.2226 38.7034 47.7613 39.4037 48.273 40.104C49.2157 41.3429 50.1853 42.5818 51.128 43.7938C51.128 43.9285 51.128 44.0631 51.128 44.1978C50.0506 43.9285 49.1618 43.2282 48.1922 42.6895C47.6536 42.3933 47.1149 42.1509 46.5224 41.9623C46.0376 41.8277 45.4451 41.6391 45.0949 42.1239C44.7987 42.5279 44.7987 43.1743 44.8795 43.6591C44.9603 44.2247 45.1488 44.7634 45.4181 45.2482C45.9837 46.2447 46.8994 46.9988 47.8421 47.5914C48.1114 47.753 48.4077 47.9146 48.7309 47.8607H48.7578C48.8117 48.13 49.0541 48.3186 49.2696 48.4532C49.5928 48.6418 49.9429 48.8034 50.2392 49.0458C50.8317 49.5306 51.3165 50.177 51.5589 50.9041C51.6128 51.0927 51.6666 51.3889 51.7743 51.5775C50.0776 53.1127 47.869 53.8937 45.9568 55.0788C44.8256 55.779 43.8021 56.587 42.7517 57.422C41.7283 58.23 40.7048 59.0649 39.7083 59.9537C39.2235 60.3846 38.7387 60.8425 38.2808 61.3273C37.9038 61.7313 37.4728 62.1622 37.392 62.7278C37.3112 63.2395 37.5536 63.7243 38.0384 63.9129C38.5502 64.1283 39.1427 64.1283 39.6814 64.0206C40.8664 63.8051 41.8899 63.1049 42.7787 62.3238C43.7483 61.4889 44.6101 60.5732 45.7144 59.8998C46.8186 59.2265 48.0306 58.7417 49.1618 58.1222C49.5928 57.8798 50.0237 57.6374 50.4546 57.3681C50.2392 57.5297 50.0237 57.6644 49.8082 57.826C48.6501 58.634 47.465 59.415 46.3069 60.1692C45.1219 60.9502 43.9637 61.7313 42.8056 62.5393C41.7283 63.2934 40.5702 64.0475 39.6544 64.9902C38.9003 65.7713 38.0654 66.9563 38.6579 68.0606C39.2504 69.1918 40.6779 68.7878 41.5667 68.3299C42.8325 67.6835 44.0445 66.8755 45.2565 66.1214C46.4955 65.3403 47.7344 64.5862 48.9464 63.7782C50.0776 63.0241 51.128 62.2161 52.2053 61.4081C53.1749 60.6809 54.1714 59.9537 55.3026 59.442C53.4711 60.7617 51.6397 62.1083 49.8352 63.455C48.7848 64.2361 47.7613 65.0171 46.7379 65.7982C46.2261 66.2022 45.6875 66.6062 45.1757 67.0102C44.664 67.4142 44.1523 67.7912 43.6405 68.1952C43.452 68.3568 43.2904 68.5184 43.2365 68.7608C43.1827 69.0032 43.2635 69.2187 43.4251 69.3803C43.7213 69.7304 44.0984 69.9728 44.5293 70.1075C45.472 70.4038 46.4685 70.1883 47.3304 69.7574C48.3538 69.2187 49.2426 68.4376 50.2122 67.7912C50.724 67.468 51.2088 67.1179 51.6666 66.7139C52.1245 66.3099 52.5554 65.8521 53.0402 65.475C54.0098 64.7747 55.1679 64.263 56.2183 63.6705C56.6493 63.4281 57.0802 63.1587 57.5111 62.9163C57.4303 62.9702 57.3764 63.0241 57.2957 63.1049C56.8378 63.4819 56.3799 63.8859 55.949 64.2899C55.5181 64.6939 55.0602 65.1249 54.5754 65.4481C53.6597 66.0675 52.5823 66.4446 51.7205 67.1718C51.3434 67.495 51.0202 67.872 50.8048 68.303C50.6162 68.68 50.4277 69.2456 50.6701 69.6227C50.9125 69.9998 51.3973 70.0536 51.8013 70.0806C52.3938 70.1344 52.9863 70.1883 53.5519 70.0536C54.1175 69.919 54.6023 69.5958 55.0602 69.2726C55.5719 68.8955 56.1106 68.5454 56.6223 68.1683C57.6727 67.4411 58.75 66.7139 59.7735 65.9329C60.6623 65.2595 61.4703 64.4515 62.4399 63.9129C63.4364 63.3473 64.6215 63.2395 65.7257 62.8625C66.0759 62.7278 66.426 62.5931 66.7761 62.4315C66.83 62.5123 66.9647 62.5393 67.0185 62.4315C67.0455 62.3777 67.0993 62.3238 67.1263 62.2699C67.1532 62.243 67.2071 62.243 67.234 62.2161C67.6919 61.9737 68.2036 61.6505 68.4998 61.2195C68.6345 61.031 68.6884 60.7886 68.6076 60.5732C68.5806 60.4924 68.4729 60.4385 68.3921 60.4924C67.7996 60.8964 67.2879 61.435 66.9108 62.0545C66.5876 62.2161 66.2644 62.3777 65.9412 62.4854C65.4295 62.6739 64.9177 62.8086 64.406 62.9433C63.8673 63.0779 63.3556 63.1857 62.8439 63.4011C61.9012 63.8051 61.1471 64.4785 60.366 65.1249C59.4503 65.879 58.4538 66.5523 57.4842 67.2256C56.5146 67.899 55.545 68.6262 54.5485 69.2726C54.0637 69.5958 53.5519 69.7843 52.9594 69.8382C52.6631 69.8651 52.3938 69.8382 52.0975 69.8112C51.8551 69.7843 51.5858 69.7843 51.3704 69.7304C51.1818 69.6766 50.9664 69.6227 50.8856 69.4342C50.7778 69.2187 50.8856 68.9224 50.9394 68.707C51.0741 68.2491 51.3704 67.872 51.7205 67.5488C52.4746 66.8216 53.4981 66.4446 54.3869 65.9059C55.3565 65.3403 56.1106 64.5054 56.9455 63.7782C57.7804 63.0241 58.6962 62.3507 59.6119 61.7043C59.8543 61.5427 60.0967 61.3811 60.3122 61.2195C60.3391 61.1926 60.366 61.1657 60.366 61.1387C60.4738 61.031 60.3391 60.8155 60.2044 60.9233C59.154 61.5697 58.1306 62.2161 57.0802 62.8625C56.0298 63.4819 54.9794 64.0206 53.929 64.6131C53.4442 64.8825 52.9863 65.1787 52.5554 65.5289C52.0975 65.9059 51.6936 66.3638 51.2357 66.7408C50.7778 67.1179 50.2661 67.4411 49.7813 67.7912C49.3234 68.1144 48.8925 68.4376 48.4616 68.7608C47.6266 69.3803 46.7109 69.9459 45.6336 69.9728C45.1757 69.9998 44.7179 69.919 44.3408 69.7304C44.1523 69.6227 43.9637 69.515 43.8021 69.3534C43.5867 69.1379 43.4789 68.9224 43.6944 68.6531C43.856 68.4376 44.0984 68.276 44.3139 68.1144C44.5563 67.9259 44.8256 67.7374 45.068 67.5219C45.5528 67.1448 46.0376 66.7678 46.5493 66.3907C47.5728 65.6097 48.5693 64.8555 49.5928 64.0745C51.5858 62.5662 53.6058 61.0849 55.6527 59.6036C55.9221 59.415 56.1645 59.2265 56.4338 59.038C56.5685 58.9572 56.4877 58.7148 56.3261 58.7686C53.929 59.4958 52.0975 61.3003 50.0776 62.7009C48.9194 63.5089 47.7344 64.263 46.5493 65.0171C45.3643 65.7713 44.1523 66.5254 42.9403 67.2526C42.3747 67.6027 41.7821 67.9528 41.1627 68.2222C40.651 68.4376 40.0046 68.6262 39.4928 68.3568C38.9811 68.0875 38.7926 67.495 38.8734 66.9563C38.9811 66.3368 39.3582 65.7982 39.7622 65.3403C40.624 64.3707 41.7283 63.6435 42.7787 62.8894C43.9099 62.1083 45.068 61.3542 46.1992 60.5732C48.4885 59.0649 50.8048 57.5566 52.9863 55.8868C53.2018 55.7252 53.3903 55.5905 53.4981 55.3212C53.5519 55.2135 53.3903 55.0788 53.2826 55.1596C52.2591 55.8868 51.1818 56.587 50.0776 57.2334C48.9733 57.8798 47.869 58.4185 46.7379 58.9841C46.1723 59.2534 45.6067 59.5766 45.0949 59.9268C44.6101 60.2769 44.1523 60.6539 43.7213 61.0579C42.8325 61.8659 41.9976 62.7278 40.9203 63.2665C40.4086 63.5358 39.816 63.6974 39.2235 63.7243C38.7118 63.7513 37.9576 63.6705 37.7691 63.1049C37.5806 62.5393 37.9846 62.0275 38.3347 61.6235C38.7656 61.1657 39.2235 60.7348 39.6814 60.3038C40.624 59.442 41.5936 58.634 42.5901 57.826C43.5867 57.018 44.6101 56.21 45.6875 55.5097C47.5997 54.2439 49.8082 53.4897 51.5858 52.0353C51.7474 51.9007 51.909 51.766 52.0706 51.6044C52.2322 51.6313 52.3669 51.5236 52.5015 51.4159C52.717 51.2812 52.9055 51.1196 53.121 50.9849C53.5519 50.6618 53.9829 50.3386 54.4138 50.0154C54.7639 49.746 55.1141 49.4228 55.3026 48.9919C55.3295 48.9111 55.3026 48.8034 55.2218 48.7764C54.5215 48.6148 53.8751 49.2612 53.3903 49.6652C52.8786 50.1231 52.4477 50.6348 52.0437 51.1735C52.0437 51.1465 52.0168 51.1196 52.0168 51.0927C51.9629 50.9311 51.936 50.7695 51.8552 50.6079C51.6128 49.9884 51.2626 49.4498 50.8048 48.9919C50.5893 48.7764 50.32 48.561 50.0506 48.3994C49.7813 48.2378 49.4581 48.1031 49.2157 47.9146C49.108 47.8338 49.0541 47.726 49.0541 47.6452C49.2426 47.5644 49.4581 47.4836 49.6197 47.3759C50.0776 47.1335 50.5624 46.8103 50.6701 46.2716C50.697 46.1639 50.5893 46.0562 50.5085 46.11C50.1045 46.2447 49.7274 46.4332 49.4042 46.6756C49.1618 46.8642 48.8656 47.1066 48.7848 47.4298C48.4885 47.4836 48.273 47.3759 48.0306 47.2143C47.1688 46.6756 46.3339 46.0292 45.7952 45.1674C45.5259 44.7365 45.3104 44.2517 45.2027 43.7399C45.1219 43.2821 45.0411 42.6626 45.2835 42.2586C45.5528 41.7469 46.28 42.0701 46.684 42.2047C47.1957 42.3663 47.6805 42.6087 48.1653 42.8781C49.1349 43.4437 50.0506 44.1439 51.1549 44.3863C51.2088 44.4133 51.2626 44.3863 51.2896 44.3325C51.3434 44.3055 51.3704 44.2786 51.3704 44.1978C51.3704 44.1439 51.3704 44.0631 51.3704 44.0093C51.4781 44.1439 51.5858 44.3055 51.6936 44.4402C52.2591 45.1674 52.8247 45.8676 53.4981 46.514C54.1445 47.1335 54.8447 47.6722 55.545 48.1839C57.2957 49.4498 59.0732 50.7156 60.8508 51.9815C60.8778 52.0084 60.9316 52.0084 60.9586 52.0084C62.5207 52.8703 64.4599 52.6548 65.9951 53.6244C66.9108 54.2169 67.5033 55.1865 68.0689 56.1022C68.3921 56.614 68.7153 57.1257 69.0116 57.6644C69.3078 58.1492 69.5502 58.6609 69.5502 59.2265C69.5772 60.2769 69.0654 61.2465 68.8769 62.2699C68.446 62.1622 68.015 62.1353 67.5572 62.2161C67.4225 62.243 67.4225 62.4046 67.5303 62.4854C67.9612 62.8086 68.4729 62.9163 68.9846 62.8355C69.0385 62.8355 69.0924 62.7547 69.0924 62.7009C70.5198 63.0241 71.9473 63.3742 73.267 64.0206C73.9673 64.3707 74.6406 64.8017 75.2062 65.3403C75.7987 65.9059 76.3105 66.5792 76.7414 67.2795C78.4651 70.1344 79.327 73.4741 79.5963 76.7869C79.8926 80.3152 79.5155 83.8434 78.8422 87.2908C78.1419 90.9268 77.1454 94.482 76.2566 98.0641C75.3678 101.619 74.5867 105.228 74.3443 108.891C74.3174 109.349 74.2905 109.807 74.2635 110.265C74.2635 110.453 74.5329 110.453 74.5598 110.265C74.6675 106.494 75.3947 102.777 76.2835 99.1145C77.1723 95.4785 78.1958 91.8695 78.9499 88.1796C79.704 84.7053 80.1619 81.1232 79.9464 77.541ZM49.9429 36.6565C50.0506 36.7912 50.1045 36.9528 50.1584 37.1144C50.2661 37.4376 50.3469 37.7608 50.4277 38.084C50.5893 38.7573 50.7509 39.4306 50.8317 40.104C50.9394 40.8311 51.0202 41.5583 51.0472 42.2855C50.4277 40.4541 50.0237 38.5688 49.9429 36.6565ZM48.4346 30.5427C48.5154 31.5931 48.2192 32.6165 47.7074 33.5323C47.6536 33.64 47.5728 33.7477 47.492 33.8555C47.7882 32.7512 48.1114 31.6469 48.4346 30.5427ZM23.1983 38.9728C23.1713 39.3768 23.1713 39.7808 23.0905 40.1847C23.0367 40.077 23.0097 39.9693 22.9559 39.8616C22.4441 38.4341 22.094 36.9528 21.7439 35.4984C21.5553 34.7443 21.3937 33.9901 21.2591 33.2091C21.0975 32.428 20.9628 31.6469 20.9359 30.8659C20.9359 30.4888 20.9628 30.1117 21.0167 29.7616C21.3668 29.7616 21.6092 30.1656 21.7439 30.4619C21.9324 30.8928 22.0671 31.3507 22.2287 31.7816C22.5249 32.6973 22.7404 33.64 22.902 34.6096C23.0636 35.5792 23.1713 36.5757 23.1983 37.5453C23.2252 38.0301 23.2252 38.5149 23.1983 38.9728ZM68.2574 60.8964C68.1766 61.2465 67.7188 61.5427 67.4225 61.7313C67.6649 61.4081 67.9342 61.1387 68.2574 60.8964ZM53.3634 50.0692C53.6058 49.8538 53.8482 49.6383 54.1175 49.4498C54.333 49.2882 54.5754 49.1266 54.8447 49.0996C54.7101 49.342 54.4946 49.5575 54.2791 49.7191C53.9559 49.9884 53.6327 50.2308 53.3095 50.4463C53.0133 50.6618 52.6901 50.8772 52.3938 51.1196C52.6901 50.7425 53.0133 50.3924 53.3634 50.0692ZM50.2392 46.541C50.0776 46.8103 49.7813 46.9988 49.512 47.1335C49.3773 47.2143 49.2426 47.2951 49.081 47.349C49.2965 47.0258 49.8352 46.7295 50.2392 46.541ZM68.042 62.4585C68.2575 62.4585 68.446 62.4585 68.6614 62.5123C68.6614 62.5393 68.6614 62.5662 68.6884 62.5931C68.4729 62.5931 68.2575 62.5393 68.042 62.4585Z" fill="#643623"/>
</g>
</svg>
